<svg enable-background="new 0 0 843.545 843.544" height="843.544" viewBox="0 0 843.545 843.544" width="843.545" xmlns="http://www.w3.org/2000/svg"><path d="m818.077 414.004c0-214.24-174.296-388.537-388.536-388.537-155.244 0-289.492 91.534-351.666 223.455-33.273 56.215-52.408 121.744-52.408 191.669 0 208.146 169.34 377.484 377.489 377.484 69.922 0 135.452-19.133 191.67-52.408 131.917-62.175 223.451-196.423 223.451-351.663z" fill="#a8782b" stroke="#4b3c15" stroke-miterlimit="10" stroke-width="50.9352"/><path d="m809.34 414.004c0 209.755-170.043 379.8-379.799 379.8-209.752 0-379.796-170.045-379.796-379.8 0-209.756 170.043-379.798 379.796-379.798 209.756 0 379.799 170.043 379.799 379.798z" fill="#c89d2c" stroke="#a8782b" stroke-miterlimit="10" stroke-width="17.4754"/><path d="m785.546 430.393c0 203.793-165.207 368.998-368.994 368.998-203.794 0-368.998-165.205-368.998-368.998 0-203.787 165.204-368.995 368.998-368.995 203.787 0 368.994 165.208 368.994 368.995z" fill="#a8782b"/><path d="m771.951 440.592c0 203.789-165.209 368.996-368.995 368.996-203.795 0-368.999-165.207-368.999-368.996 0-203.793 165.204-368.997 368.999-368.997 203.786 0 368.995 165.204 368.995 368.997z" fill="#f9cb46" stroke="#a8782b" stroke-miterlimit="10" stroke-width="16.9784"/><path d="m726.378 618.336c29.035-52.725 45.573-113.303 45.573-177.744 0-203.793-165.209-368.997-368.995-368.997-40.65 0-79.753 6.589-116.327 18.732z" fill="#fff" opacity=".3"/><path d="m79.53 262.851c-29.035 52.722-45.573 113.298-45.573 177.741 0 203.789 165.204 368.996 368.999 368.996 40.644 0 79.749-6.594 116.321-18.729z" fill="#a8782b" opacity=".3"/><g stroke-miterlimit="10"><path d="m757.238 440.021c0 195.355-158.364 353.719-353.718 353.719-195.352 0-353.714-158.363-353.714-353.719 0-195.35 158.362-353.713 353.714-353.713 195.354 0 353.718 158.364 353.718 353.713z" fill="none" opacity=".3" stroke="#fff" stroke-width="16.2753"/><path d="m675.787 441.268c0 151.057-122.457 273.515-273.513 273.515s-273.511-122.458-273.511-273.515c0-151.055 122.455-273.51 273.511-273.51s273.513 122.455 273.513 273.51z" fill="#f9cb46" stroke="#a8782b" stroke-width="18.1393"/><circle cx="404.616" cy="443.611" fill="#f9cb46" opacity=".4" r="260.635" stroke="#a8782b" stroke-width="17.2853"/><path d="m694.123 442.38c0 161.797-131.164 292.961-292.958 292.961-161.797 0-292.96-131.164-292.96-292.961 0-161.795 131.163-292.957 292.96-292.957 161.794 0 292.958 131.162 292.958 292.957z" fill="none" opacity=".3" stroke="#fff" stroke-width="18.6243"/></g><path d="m428.58 685.551c-137.704 0-249.345-111.635-249.345-249.345s111.641-249.345 249.345-249.345c56.955 0 109.412 19.138 151.396 51.271-46.826-38.829-106.946-62.183-172.533-62.183-149.387 0-270.488 121.105-270.488 270.489 0 149.38 121.101 270.479 270.488 270.479 149.381 0 270.482-121.1 270.482-270.479 0-1.716-.096-3.411-.128-5.115-2.733 135.334-113.222 244.228-249.217 244.228z" fill="#a8782b" opacity=".6"/><path d="m418.646 183.359 243.754 298.76c1.858-12.568 2.852-25.423 2.852-38.508-.001-139.235-109.188-252.96-246.606-260.252z" fill="#fff" opacity=".2"/><path d="m390.604 711.626-243.755-298.761c-1.86 12.572-2.852 25.423-2.852 38.513 0 139.235 109.184 252.955 246.607 260.248z" fill="#a8782b" opacity=".3"/><path d="m450.659 462.7c-2.645-4.027-8.861-8.022-13.487-4.501-1.164.886-.977 2.403.387 2.956 2.914 1.182 5.964 1.813 7.759 4.668 2.12 3.376 7.534.213 5.341-3.123z" fill="#fff" opacity=".3"/><g fill="#f9cb46"><g stroke="#a8782b" stroke-miterlimit="10" stroke-width="14.4321"><path d="m495.556 435.729c-22.432-26.165-59.814-48.599-59.814-48.599v-2.666s1.6-3.206 4.805-7.478c.014-.021.05-.045.064-.063-1.354.355-2.68.803-3.944 1.467-5.055 2.659-10.618 8.334-16.755 8.008-9.873-.533-23.2-8.893-25.695-18.944-.168-.674.213-1.237.736-1.503 1.511-3.046 3.17-6.149 5.125-8.917-2.555-.156-6.01-.34-7.594-.34-1.859 0-6.31 5.177-8.836 8.323-.255.458-.589.875-.998 1.258-.523.668-.846 1.099-.846 1.099l-.416.017c-.09.078-.171.143-.26.22-2.108 1.845-4.318 3.569-6.494 5.335-3.672 2.981-6.878 6.752-10.684 9.496-.256.19-.619-.12-.527-.408 1.415-4.475 6.057-7.858 9.469-10.832 1.347-1.182 2.694-2.375 4.006-3.605l-1.428.065c-2.977 1.499-6.921 1.908-9.814 2.321-5.064.722-10.715 2.09-15.798 1.539-.387-.043-.769-.573-.367-.888 3.632-2.858 8.95-3.268 13.377-4.137 1.4-.274 2.819-.545 4.223-.869-11.657-1.609-31.746-7.35-30.193-19.109.018-.14.161-.193.253-.122.027-.771.164-1.545.338-2.306-.928.021-2.037-.021-3.216-.22-3.206-.534-8.547 2.672-10.685 4.81-2.136 2.136-8.543 14.418-8.543 14.418s-2.674 3.205-5.876 6.944c-2.277 2.655-10.472 15.269-15.033 22.358 3.735-1.815 7.396-3.776 11.064-5.842 5.353-3.01 11.11-6.683 17.229-7.787.689-.124 1.014.689.462 1.094-5.985 4.435-13.213 7.862-19.768 11.423-3.813 2.071-7.752 3.98-11.821 5.53-.17.27-.291.458-.291.458s-6.945 4.809-11.216 9.08c-3.461 3.463-8.31 13.236-11.548 17.601-.657 7.396-6.238 13.924-9.042 20.532-.032.074-.143.011-.109-.067.441-1.03.845-2.094 1.239-3.171-.109.056-.266-.021-.227-.18 1.133-4.542 1.979-9.003 3.01-13.426-3.313 1.764-6.951 3.76-9.489 5.35-5.878 3.679-10.151 6.473-9.618 9.825.541 3.349-3.739 15.873-6.404 20.045-2.673 4.175 0 7.576 0 7.576l-21.364 14.951s3.206 4.272 3.206 9.08c0 1.104-.146 1.945-.434 2.642.373-1.838-.097-3.691-1.397-5.664-3.888-5.894-5.111-29.081-6.994-28.442-1.883.637-11.135 16.869-12.638 26.657-.563 3.669-1.223 8.157-1.201 11.993-1.43.829-3.716 2.082-5.108 2.429-2.136.534-6.437 2.67-6.437 7.479 0 4.804 2.161 10.144 2.161 10.144s1.606 5.342 6.412 14.957c4.805 9.608 17.088 15.486 17.088 15.486l8.547-9.608s12.278 10.143 16.018 12.278c3.739 2.137 12.821-.534 12.821-.534s-7.479-4.271-13.354-8.544c-5.872-4.274-4.805-11.211-4.805-11.211s10.68-8.012 22.43-14.956c11.746-6.945 53.095-21.041 60.036-21.041 6.945 0 9.628 9.718 13.366 23.603 3.74 13.887-33.884 74.876-33.884 74.876l-4.272.53 2.672 2.676s-4.806 1.064-8.011 0c-3.206-1.067-3.312-6.748-5.875-5.344-2.563 1.406 3.203 9.614 4.809 12.283 1.598 2.669 4.806 4.272 4.806 4.272l-2.141 3.205 3.206 5.343-.534 3.738 5.339 1.6s5.878 6.41 9.617 12.819c3.735 6.409 17.621 14.093 17.621 14.093s-4.271-8.75-7.478-13.56c-3.202-4.808-2.67-13.886-2.67-13.886s3.74-2.669 9.082-6.943c5.338-4.274 10.681-21.895 14.416-30.438 3.738-8.547 11.216-16.555 21.364-27.772 5.306-5.866 14.39-11.856 21.868-16.259-.07-.375.058-.787.491-1.067 15.801-10.24 44.754-13.823 44.653-37.414-.006-.796.569-1.632 1.376-1.804 8.533-1.864 15.74.104 23.321 3.463-1.452-6.772-8.39-10.274-13.231-14.853-3.257-3.078-5.167-6.657-2.529-10.799 3.263-5.127 11.79-5.245 17.079-4.989 5.521.271 11.264.933 16.609 2.609-6.308-12.482-19.964-18.851-33.938-18.506-.825.017-1.729-.608-1.893-1.442-2.551-12.777 8.608-21.741 19.854-25.324-15.331-10.05-38.988-15.052-52.277-.146-1.542 1.732-4.609-.595-3.238-2.5 13.929-19.275 46.609-10.54 62.083 2.063 1.215.988.591 3.368-.957 3.625-9.741 1.635-23.253 8.28-21.912 19.781 16.536-.071 32.119 9.314 37.67 25.313.609 1.751-1.437 2.814-2.823 2.174-6.211-2.879-13.968-3.903-20.734-3.86-3.566.022-17.82 1.451-11.736 8.046 6.156 6.675 15.619 11.041 15.438 21.405-.02 1.261-1.319 1.905-2.39 1.371-7.013-3.486-14.172-5.903-21.888-4.204 1.531 18.903-16.821 26.094-33.125 32.08 2.166 1.14 4.901 2.765 7.091 4.681 4.272 3.738 20.294 23.494 24.564 36.312 4.273 12.818 2.135 34.718 2.135 34.718s56.608 1.601 82.782-23.5c26.168-25.1 30.44-96.129 30.44-96.129s-20.824-32.576-43.254-58.749zm-257.505 35.612c-.2.038-.316-.211-.139-.327 2.203-1.438 4.486-2.49 6.391-4.37 1.648-1.62 3.19-3.318 4.689-5.075.158-.186.403.049.315.241-1.99 4.248-6.454 8.693-11.256 9.531zm82.352-36.783-24.037 15.296s-7.275 7.382-13.09 12.455c-7.706 6.717-34.197-.989-24.953-12.001.302-.358.754.102.597.463-3.515 8.16 6.089 11.25 11.854 12.026 4.982.669 9.268-.283 12.85-3.987 4.621-4.777 8.339-10.136 11.679-15.864 1.249-2.14 3.447-6.081 6.187-9.799 1.725-4.408 5.706-7.559 10.103-9.159 1.357-.498 3.084-1.087 4.928-1.557.285-.1.562-.192.846-.263 11.456-2.866 21.958 4.769 21.958 4.769z"/><path d="m339.677 343.899c-.045.152-.117.298-.152.455-.313 1.231.049 3.875-1.009 4.806 5.55 9.244 19.911 12.708 30.541 13.284.734-1.225 9.733-15.887 26.098-27.647 17.088-12.286 58.741-20.831 82.243-33.646 23.497-12.816 24.563-27.644 24.563-27.644s-15.489 11.086-31.511 16.428c-16.019 5.337-72.627 21.36-93.458 30.44-20.828 9.081-36.849 23.44-36.849 23.44s-.167.035-.466.084z"/><path d="m566.583 299.551c-16.386 15.485-53.938 21.893-88.65 26.698-31.021 4.296-66.273 25.633-73.439 30.131-.049.051-.106.093-.151.143-1.103 1.23-2.037 2.563-2.888 3.974-1.353 2.252-2.533 4.763-4.438 6.6 2.811 4.933 7.991 9.167 12.808 11.874 7.195 4.053 11.985 4.095 18.803-.7 5.358-3.771 10.023-5.533 16.535-6.152.758-.071 1.533-.15 2.315-.227 9.462-5.733 25.901-13.684 35.261-16.805 12.818-4.271 61.419-25.099 80.642-37.916 19.224-12.815 24.268-37.136 22.432-38.452-1.838-1.315-2.846 5.343-19.23 20.832z"/></g><path d="m494.869 435.729c-22.432-26.165-59.815-48.599-59.815-48.599v-2.666s1.599-3.206 4.804-7.478c.015-.021.05-.045.064-.063-1.352.355-2.68.803-3.943 1.467-5.055 2.659-10.618 8.334-16.756 8.008-9.872-.533-23.199-8.893-25.695-18.944-.167-.674.214-1.237.735-1.503 1.511-3.046 3.17-6.149 5.125-8.917-2.555-.156-6.009-.34-7.595-.34-1.859 0-6.31 5.177-8.835 8.323-.256.458-.59.875-.998 1.258-.523.668-.846 1.099-.846 1.099l-.417.017c-.089.078-.17.143-.259.22-2.108 1.845-4.318 3.569-6.493 5.335-3.672 2.981-6.878 6.752-10.684 9.496-.256.19-.62-.12-.527-.408 1.415-4.475 6.057-7.858 9.468-10.832 1.348-1.182 2.695-2.375 4.006-3.605l-1.429.065c-2.976 1.499-6.92 1.908-9.813 2.321-5.065.722-10.714 2.09-15.798 1.539-.387-.043-.768-.573-.367-.888 3.633-2.858 8.951-3.268 13.378-4.137 1.401-.274 2.818-.545 4.223-.869-11.657-1.609-31.746-7.35-30.192-19.109.018-.14.16-.193.252-.122.028-.771.163-1.545.338-2.306-.928.021-2.037-.021-3.217-.22-3.206-.534-8.547 2.672-10.685 4.81-2.136 2.136-8.543 14.418-8.543 14.418s-2.673 3.205-5.876 6.944c-2.277 2.655-10.472 15.269-15.034 22.358 3.736-1.815 7.396-3.776 11.065-5.842 5.352-3.01 11.11-6.683 17.229-7.787.689-.124 1.014.689.462 1.094-5.986 4.435-13.214 7.862-19.768 11.423-3.813 2.071-7.752 3.98-11.822 5.53-.169.27-.29.458-.29.458s-6.946 4.809-11.217 9.08c-3.461 3.463-8.309 13.236-11.546 17.601-.658 7.396-6.239 13.924-9.042 20.532-.032.074-.143.011-.11-.067.441-1.03.845-2.094 1.239-3.171-.109.056-.266-.021-.226-.18 1.133-4.542 1.978-9.003 3.009-13.426-3.312 1.764-6.952 3.76-9.489 5.35-5.878 3.679-10.151 6.473-9.618 9.825.541 3.349-3.738 15.873-6.404 20.045-2.673 4.175 0 7.576 0 7.576l-21.363 14.951s3.206 4.272 3.206 9.08c0 1.104-.146 1.945-.434 2.642.373-1.838-.097-3.691-1.397-5.664-3.888-5.894-12.069-14.751-6.995-28.442 0 0-11.134 16.869-12.638 26.657-.563 3.669-1.223 8.157-1.201 11.993-1.429.829-3.716 2.082-5.108 2.429-2.136.534-6.437 2.67-6.437 7.479 0 4.804 2.162 10.144 2.162 10.144s1.605 5.342 6.412 14.957c4.806 9.608 17.088 15.486 17.088 15.486l8.548-9.608s12.279 10.143 16.018 12.278c3.739 2.137 12.82-.534 12.82-.534s-7.479-4.271-13.354-8.544c-5.872-4.274-4.804-11.211-4.804-11.211s10.679-8.012 22.429-14.956c11.746-6.945 53.095-21.041 60.037-21.041 6.944 0 9.628 9.718 13.366 23.603 3.74 13.887-33.883 74.876-33.883 74.876l-4.272.53 2.672 2.676s-4.804 1.064-8.01 0c-3.206-1.067-5.875-5.344-5.875-5.344s3.203 9.614 4.81 12.283c1.598 2.669 4.806 4.272 4.806 4.272l-2.141 3.205 3.206 5.343-.533 3.738 5.339 1.6s5.878 6.41 9.617 12.819c3.735 6.409 17.622 14.093 17.622 14.093s-4.272-8.75-7.478-13.56c-3.202-4.808-2.67-13.886-2.67-13.886s3.74-2.669 9.081-6.943c5.338-4.274 10.681-21.895 14.416-30.438 3.739-8.547 11.217-16.555 21.364-27.772 5.306-5.866 14.391-11.856 21.868-16.259-.07-.375.057-.787.491-1.067 15.801-10.24 44.754-13.823 44.653-37.414-.005-.796.569-1.632 1.376-1.804 8.532-1.864 15.741.104 23.321 3.463-1.453-6.772-8.39-10.274-13.231-14.853-3.257-3.078-5.168-6.657-2.529-10.799 3.262-5.127 11.791-5.245 17.08-4.989 5.519.271 11.262.933 16.609 2.609-6.31-12.482-19.965-18.851-33.938-18.506-.825.017-1.729-.608-1.893-1.442-2.551-12.777 8.608-21.741 19.854-25.324-15.331-10.05-38.988-15.052-52.276-.146-1.542 1.732-4.609-.595-3.237-2.5 13.928-19.275 46.608-10.54 62.081 2.063 1.216.988.591 3.368-.957 3.625-9.739 1.635-23.252 8.28-21.912 19.781 16.536-.071 32.121 9.314 37.67 25.313.61 1.751-1.436 2.814-2.823 2.174-6.211-2.879-13.967-3.903-20.734-3.86-3.566.022-17.819 1.451-11.734 8.046 6.155 6.675 15.617 11.041 15.438 21.405-.02 1.261-1.317 1.905-2.39 1.371-7.013-3.486-14.172-5.903-21.888-4.204 1.532 18.903-16.821 26.094-33.125 32.08 2.166 1.14 4.902 2.765 7.091 4.681 4.272 3.738 20.294 23.494 24.566 36.312s2.134 34.718 2.134 34.718 56.608 1.601 82.781-23.5c26.168-25.1 30.441-96.129 30.441-96.129s-20.831-32.576-43.261-58.749zm-257.506 35.612c-.199.038-.315-.211-.139-.327 2.204-1.438 4.486-2.49 6.392-4.37 1.647-1.62 3.19-3.318 4.689-5.075.158-.186.403.049.314.241-1.989 4.248-6.454 8.693-11.256 9.531zm82.352-36.783-24.035 15.296s-7.276 7.382-13.09 12.455c-7.706 6.717-34.197-.989-24.953-12.001.302-.358.754.102.597.463-3.515 8.16 6.089 11.25 11.854 12.026 4.983.669 9.269-.283 12.851-3.987 4.62-4.777 8.338-10.136 11.678-15.864 1.248-2.14 3.448-6.081 6.187-9.799 1.725-4.408 5.705-7.559 10.102-9.159 1.358-.498 3.085-1.087 4.93-1.557.284-.101.561-.192.846-.263 11.455-2.866 21.957 4.769 21.957 4.769z"/></g><g fill="#fff" opacity=".3"><path d="m284.174 613.449-.796 1.19.765 1.274c1.268-.14 2.158-.337 2.158-.337z"/><path d="m395.779 372.569c-1.901 2.724-3.526 5.756-5.006 8.738-.521.267-.903.83-.735 1.503 2.495 10.052 15.822 18.411 25.695 18.945 6.138.326 11.7-5.35 16.756-8.008 1.264-.665 2.591-1.112 3.943-1.468-.015.018-.05.042-.064.063-3.205 4.272-4.805 7.478-4.805 7.478v2.666s37.385 22.433 59.815 48.599c22.43 26.172 43.258 58.749 43.258 58.749s-.964 15.992-4.769 35.479c6.743-25.666 8.259-50.833 8.259-50.833s-20.828-32.577-43.258-58.75c-22.432-26.165-59.815-48.599-59.815-48.599v-2.666s1.599-3.206 4.804-7.478c.015-.021.05-.045.064-.063-1.352.355-2.68.803-3.943 1.467-5.055 2.659-10.618 8.334-16.756 8.008-8.135-.439-18.61-6.194-23.443-13.83z"/><path d="m310.005 636.39c-3.073 2.367-5.014 3.753-5.014 3.753s-.057 1.035-.016 2.575c5.492 4.996 13.653 9.515 13.653 9.515s-4.272-8.75-7.478-13.56c-.455-.687-.828-1.462-1.145-2.283z"/><path d="m304.991 385.398c3.202-3.74 5.876-6.944 5.876-6.944s6.408-12.283 8.543-14.418c2.137-2.138 7.479-5.343 10.685-4.81 1.18.199 2.289.242 3.216.221-.174.76-.31 1.535-.338 2.306-.092-.071-.235-.018-.252.122-1.553 11.76 18.535 17.5 30.192 19.11-1.404.323-2.822.594-4.222.868-4.428.87-9.746 1.279-13.378 4.137-.401.316-.02.845.367.889 5.083.551 10.734-.818 15.798-1.539 2.894-.414 6.838-.822 9.814-2.321l1.428-.065c-1.312 1.23-2.659 2.424-4.006 3.605-3.411 2.974-8.054 6.357-9.468 10.832-.092.289.271.599.527.408 3.806-2.743 7.012-6.515 10.684-9.496 2.175-1.766 4.386-3.49 6.494-5.335.089-.077.17-.142.26-.22l.416-.017s.323-.431.846-1.098c.409-.384.743-.801.999-1.258 2.526-3.146 6.977-8.323 8.835-8.323 1.537 0 4.827.172 7.355.326-.972-1.573-1.709-3.221-2.131-4.92-.167-.674.214-1.237.735-1.503 1.511-3.046 3.17-6.149 5.125-8.917-2.555-.156-6.009-.34-7.595-.34-1.859 0-6.31 5.177-8.835 8.323-.256.458-.59.875-.998 1.258-.523.668-.846 1.099-.846 1.099l-.417.017c-.089.078-.17.143-.259.22-2.108 1.845-4.318 3.569-6.493 5.335-3.672 2.981-6.878 6.752-10.684 9.496-.256.19-.62-.12-.527-.408 1.415-4.475 6.057-7.858 9.468-10.832 1.348-1.182 2.695-2.375 4.006-3.605l-1.429.065c-2.976 1.499-6.92 1.908-9.813 2.321-5.065.722-10.714 2.09-15.798 1.539-.387-.043-.768-.573-.367-.888 3.633-2.858 8.951-3.268 13.378-4.137 1.401-.274 2.818-.545 4.223-.869-11.657-1.609-31.746-7.35-30.192-19.109.018-.14.16-.193.252-.122.028-.771.163-1.545.338-2.306-.928.021-2.037-.021-3.217-.22-3.206-.534-8.547 2.672-10.685 4.81-2.136 2.136-8.543 14.418-8.543 14.418s-2.673 3.205-5.876 6.944c-2.277 2.655-10.472 15.269-15.034 22.358 3.49-1.696 6.914-3.528 10.34-5.445.487-.672.9-1.21 1.203-1.562z"/></g><path d="m338.989 343.899c-.045.152-.117.298-.152.455-.313 1.231.05 3.875-1.009 4.806 5.551 9.244 19.911 12.708 30.54 13.284.735-1.225 9.733-15.887 26.098-27.647 17.087-12.286 58.743-20.831 82.243-33.646 23.498-12.816 24.564-27.644 24.564-27.644s-15.489 11.086-31.511 16.428c-16.018 5.337-72.627 21.36-93.458 30.44-20.827 9.081-36.848 23.44-36.848 23.44s-.167.035-.467.084z" fill="#f9cb46"/><path d="m565.896 299.551c-16.385 15.485-53.938 21.893-88.651 26.698-31.02 4.296-66.273 25.633-73.438 30.131-.05.051-.107.093-.152.143-1.102 1.23-2.036 2.563-2.887 3.974-1.354 2.252-2.533 4.763-4.439 6.6 2.811 4.933 7.99 9.167 12.808 11.874 7.194 4.053 11.985 4.095 18.801-.7 5.359-3.771 10.024-5.533 16.536-6.152.757-.071 1.533-.15 2.314-.227 9.462-5.733 25.903-13.684 35.261-16.805 12.82-4.271 61.419-25.099 80.642-37.916 19.226-12.815 22.434-38.452 22.434-38.452s-2.847 5.343-19.229 20.832z" fill="#f9cb46"/><g fill="#fff"><path d="m342.327 349.24c.035-.156.107-.302.152-.455.3-.049.467-.085.467-.085s16.021-14.359 36.849-23.44c20.831-9.08 77.44-25.103 93.46-30.44 9.147-3.05 18.116-7.971 24.133-11.633 3.591-5.66 3.887-9.681 3.887-9.681s-15.489 11.086-31.511 16.428c-16.018 5.337-72.627 21.36-93.458 30.44-20.827 9.081-36.848 23.44-36.848 23.44s-.167.035-.467.084c-.045.152-.117.298-.152.455-.313 1.231.05 3.875-1.009 4.806 1.006 1.675 2.308 3.155 3.819 4.468.647-1.145.404-3.308.678-4.387z" opacity=".3"/><path d="m404.256 365.383c.851-1.411 1.785-2.744 2.887-3.975.046-.05.103-.092.152-.143 7.166-4.498 42.419-25.834 73.439-30.131 34.712-4.805 72.266-11.213 88.648-26.699 5.302-5.011 9.179-8.954 12.006-12.003 2.973-7.676 3.734-13.714 3.734-13.714s-2.846 5.342-19.229 20.831c-16.385 15.485-53.938 21.893-88.651 26.698-31.02 4.296-66.273 25.633-73.438 30.131-.05.051-.107.093-.152.143-1.102 1.23-2.036 2.563-2.887 3.974-1.354 2.252-2.533 4.763-4.439 6.6.958 1.683 2.206 3.275 3.608 4.762 1.836-1.825 2.998-4.27 4.322-6.474z" opacity=".3"/><path d="m248.665 473.959c-.114-1.144-.696-2.141-1.874-2.461-4.07-1.106-8.148 4.034-11.194 6.244-3.592 2.605-7.229 4.935-9.813 8.612-.872 1.239.564 2.964 1.939 2.523 4.395-1.407 8.253-3.874 12.177-6.257 3.013-1.83 9.181-4.474 8.765-8.661z" opacity=".3"/><path d="m324.32 388.508c-6.7-2.194-16.195 3.183-22.033 6.151-7.673 3.901-14.734 9.323-20.514 15.696-5.139 5.667-8.319 12.639-10.887 19.766-1.407 3.903-2.569 7.891-3.964 11.799-1.47 4.12-3.695 7.895-5.3 11.962-.686 1.734 1.548 3.06 2.956 2.271 6.241-3.494 8.923-10.764 11.593-17.038 2.985-7.014 5.536-13.951 10.672-19.736 5.091-5.733 11.711-9.851 18.414-13.433 3.174-1.696 6.481-3.053 9.883-4.21 3.362-1.145 7.582-1.295 10.464-3.405 3.739-2.737 3.404-8.287-1.284-9.823z" opacity=".3"/><path d="m435.351 430.448c-4.685-3.484-10.827-4.388-16.515-3.48-4.232.675-11.847 2.976-11.244 8.603.085.8.667 1.237 1.46 1.112 3.482-.548 7.431-2.055 11.245-2.518-8.32 9.029-11.929 27.856-5.774 35.214 2.608 3.117 8.329-.199 6.897-4.016-2.131-5.681-1.102-11.18.836-16.836 1.274-3.723 4.707-11.771 9.772-10.194 5.014 1.562 7-5.148 3.323-7.885z" opacity=".3"/><path d="m431.813 493.945c-2.094-3.099-4.949-5.446-8.612-6.429-1.464-.394-3.108 1.354-2.106 2.74.509.704 1.039 1.376 1.572 2.042-3.085.247-6.044 1.053-8.475 3.227-3.244 2.902-4.334 8.387-6.366 12.094-4.029 7.353-10.717 11.396-18.056 14.945-7.233 3.498-14.514 6.62-21.52 10.587-12.593 7.133-24.536 15.665-34.107 26.601-4.689 5.357-8.611 11.295-11.879 17.611-3.67 7.092-4.94 13.71-5.803 21.537-.169 1.53 2.22 2.112 2.88.78 3.061-6.175 6.505-12.225 9.658-18.381 3.128-6.107 7.044-11.842 11.5-17.051 9.08-10.617 20.729-18.575 32.718-25.547 11.947-6.947 26.705-10.717 36.229-21.198 3.761-4.138 5.873-9.36 8.032-14.423 2.067-4.851 6.792-4.278 11.508-4.21 2.37.034 4.23-2.849 2.827-4.925z" opacity=".3"/></g><circle cx="137.284" cy="260.392" fill="#f9cb46" r="11.999" stroke="#a8782b" stroke-miterlimit="10" stroke-width="6"/><path d="m133.028 252.812c.085 4.535 3.781 8.187 8.337 8.187 1.043 0 2.038-.2 2.959-.55-.085-4.535-3.781-8.187-8.336-8.187-1.044 0-2.039.2-2.96.55z" fill="#fff" opacity=".5"/><circle cx="673.284" cy="260.392" fill="#f9cb46" r="11.999" stroke="#a8782b" stroke-miterlimit="10" stroke-width="6"/><path d="m669.028 252.812c.085 4.535 3.781 8.187 8.337 8.187 1.043 0 2.038-.2 2.959-.55-.085-4.535-3.781-8.187-8.336-8.187-1.045 0-2.039.2-2.96.55z" fill="#fff" opacity=".5"/><circle cx="137.284" cy="641.655" fill="#f9cb46" r="11.999" stroke="#a8782b" stroke-miterlimit="10" stroke-width="6"/><path d="m133.028 634.075c.085 4.535 3.781 8.187 8.337 8.187 1.043 0 2.038-.199 2.959-.551-.085-4.534-3.781-8.186-8.336-8.186-1.044 0-2.039.2-2.96.55z" fill="#fff" opacity=".5"/><circle cx="673.284" cy="641.655" fill="#f9cb46" r="11.999" stroke="#a8782b" stroke-miterlimit="10" stroke-width="6"/><path d="m669.028 634.075c.085 4.535 3.781 8.187 8.337 8.187 1.043 0 2.038-.199 2.959-.551-.085-4.534-3.781-8.186-8.336-8.186-1.045 0-2.039.2-2.96.55z" fill="#fff" opacity=".5"/><circle cx="724.948" cy="452.205" fill="#f9cb46" r="12" stroke="#a8782b" stroke-miterlimit="10" stroke-width="6"/><path d="m720.691 444.625c.086 4.535 3.781 8.188 8.338 8.188 1.043 0 2.037-.2 2.959-.551-.086-4.535-3.781-8.187-8.336-8.187-1.045 0-2.039.2-2.961.55z" fill="#fff" opacity=".5"/><circle cx="76.948" cy="452.205" fill="#f9cb46" r="11.999" stroke="#a8782b" stroke-miterlimit="10" stroke-width="6"/><path d="m72.692 444.625c.085 4.535 3.781 8.188 8.337 8.188 1.043 0 2.038-.2 2.959-.551-.085-4.535-3.781-8.187-8.336-8.187-1.045 0-2.039.2-2.96.55z" fill="#fff" opacity=".5"/><circle cx="397.907" cy="767.654" fill="#f9cb46" r="11.999" stroke="#a8782b" stroke-miterlimit="10" stroke-width="6"/><path d="m393.651 760.074c.085 4.535 3.781 8.188 8.337 8.188 1.043 0 2.038-.2 2.959-.551-.085-4.535-3.781-8.187-8.336-8.187-1.044 0-2.039.201-2.96.55z" fill="#fff" opacity=".5"/><g fill="#f9cb46"><g stroke="#a8782b" stroke-miterlimit="10" stroke-width="13"><path d="m203.544 153.239c-.635 6.503-1.098 12.976-1.392 19.41-3.117-3.106-6.762-4.597-10.946-4.375-4.178.224-8.627 2.124-13.204 5.76-6.519 5.185-10.177 11.018-10.942 17.08-.772 6.079 1.421 11.769 6.339 17.111 10.98 11.752 23.029 11.018 37.306-.107 2.451-1.893 4.924-3.746 7.417-5.558-4.209-5.806-8.418-11.611-12.627-17.416-4.166 3.027-8.277 6.162-12.333 9.402-2.638 2.109-4.585 3.565-5.873 4.315-1.288.751-2.719 1.256-4.303 1.521-.225-.263-.449-.525-.673-.788 1.628-.412 3.089-1.003 4.388-1.78 1.299-.776 3.241-2.234 5.857-4.324 4.022-3.21 8.1-6.316 12.23-9.319-.438-.604-.876-1.208-1.314-1.812-4.641 3.374-9.217 6.878-13.723 10.514-.729.588-1.457 1.18-2.182 1.775-4.794 3.944-8.11 4.899-10.074 2.64-.759-.877-1.009-1.979-.736-3.306.272-1.326.985-2.479 2.135-3.444.853-.717 1.771-1.138 2.747-1.263s1.69.095 2.145.65c.77.942.692 1.915-.224 2.926-.346.377-.691.754-1.036 1.133-.335.389-.44.659-.316.806.231.276.877-.036 1.946-.924.55-.458 1.102-.913 1.655-1.366 10.728-8.801 21.86-16.859 33.33-24.176-1.396 3.104-2.74 6.215-4.029 9.332 3.799 5.654 7.597 11.308 11.396 16.962 2.879-.106 5.741-.167 8.586-.185-8.089 5.18-15.993 10.766-23.684 16.758-1.52 1.184-3.032 2.384-4.535 3.6-3.779 3.058-7.124 5.353-10.108 6.822-2.983 1.471-6.426 2.526-10.373 3.213-9.261 1.688-17.008-.101-23.063-6.141-6.233-6.206-8.242-14.033-5.416-23.459 2.452-8.22 7.728-15.808 15.672-22.223 3.551-2.867 7.98-5.697 13.266-8.37 5.409-2.724 8.902-4.514 10.452-5.59 2.274-1.57 4.344-3.499 6.239-5.804zm-8.877 16.972c-.419.083-.839.167-1.258.251-5.292 1.1-9.6 2.992-12.832 5.549-3.922 3.104-6.563 6.752-7.878 10.81-.926 2.966-.92 5.845-.01 8.611.909 2.77 2.836 5.789 5.749 9.077 3.702 4.178 7.149 6.822 10.302 7.991 3.156 1.171 7.101 1.269 11.83.435.097.117.194.234.291.351-4.694 1.415-8.937 1.555-12.767.306-3.825-1.25-7.75-4.042-11.716-8.466-4.372-4.871-6.368-9.94-5.807-15.245.555-5.292 3.627-10.294 9.185-14.699 4.833-3.826 9.818-5.537 14.766-5.172.048.068.097.135.145.201zm27.974-1.306c-1.03 2.326-2.029 4.655-2.999 6.988 3.539 5.429 7.077 10.858 10.615 16.287 4.094.478 8.143 1.042 12.144 1.689-6.302 3.804-12.5 7.853-18.58 12.145-5.459 3.967-10.818 8.132-16.065 12.494-.998.816-1.774 1.425-2.335 1.82-1.961 1.384-4.291 2.371-7.014 2.989.304-.266.608-.53.913-.794 2.517-1.083 5.483-3.068 8.968-5.89.73-.608 1.462-1.213 2.196-1.813 9.255-7.352 18.83-14.105 28.672-20.26-3.299-.43-6.629-.803-9.989-1.118-3.725-5.653-7.45-11.307-11.175-16.96 1.065-2.624 2.168-5.244 3.309-7.859.448.092.894.187 1.34.282zm-14.382-15.615c-.621 5.916-1.099 11.808-1.435 17.67-.501.16-1.002.321-1.504.483.326-5.891.795-11.812 1.409-17.758.51-.133 1.02-.265 1.53-.395z"/><path d="m271.595 116.558c-1.493 2.328-2.953 4.664-4.38 7.008 5.505 4.258 10.865 8.629 16.077 13.107.647-.567 1.297-1.133 1.949-1.697-4.684-4.079-9.489-8.071-14.413-11.973 1.462-2.395 2.959-4.781 4.491-7.158.575-.054 1.15-.106 1.725-.158-1.463 2.267-2.895 4.542-4.294 6.825 4.636 3.721 9.166 7.523 13.586 11.402.371-.399.585-.638.643-.718.497-.59.996-1.179 1.498-1.767.926-1.031 1.503-1.727 1.72-2.095 2.034 2.63 4.47 4.773 7.287 6.461-1.11.31-1.91.551-2.398.716-3.576 1.212-6.038 2.545-7.39 3.922 5.706 5.136 11.227 10.4 16.558 15.783 3.153.646 6.275 1.34 9.366 2.081-8.842 2.669-17.59 5.734-26.217 9.195 1.76-2.433 3.564-4.851 5.414-7.252-3.353-3.055-6.773-6.063-10.26-9.022-2.835 4.422-4.675 8.37-5.633 11.789-.433.096-.865.193-1.298.291.969-3.374 2.871-7.484 5.851-12.275.093-.186.187-.372.28-.558-.568-.428-1.138-.855-1.71-1.281-3.3 4.273-5.554 8.703-6.808 13.215-.476-.228-.953-.455-1.431-.68-2.752-1.283-6.172-2.6-10.302-3.883-.249-.066-.497-.131-.746-.196-.699 5.571-.297 9.668 1.008 12.319.771 1.562 1.787 2.7 3.04 3.426 1.251.729 3.876 1.68 7.799 2.96.338.117.868.297 1.586.543-8.968 4.139-17.781 8.726-26.403 13.762-.507-.136-1.016-.271-1.524-.404 8.143-4.794 16.457-9.189 24.913-13.185-.407-.129-.813-.257-1.221-.384-3.147-.949-5.361-1.772-6.595-2.534-1.235-.76-2.229-1.877-2.97-3.361-1.255-2.521-1.742-6.987-1.217-13.439-1.058-.196-2.119-.387-3.184-.572-.074 1.021-.086 2.476-.026 4.36.048 1.551.105 3.1.169 4.646.087 2.496.486 4.404 1.166 5.732.705 1.378 1.612 2.357 2.713 2.944 1.101.589 3.074 1.152 5.888 1.743.273.051.689.141 1.246.269-8.332 4.048-16.523 8.485-24.546 13.31 3.536-4.511 5.903-8.989 7.046-13.556 1.142-4.563 1.465-10.768 1.112-18.684-.017-.208-.033-.417-.049-.626-2.455-.145-5.549.595-9.234 2.283.872-3.053 1.302-5.953 1.255-8.706.678.051 1.09.085 1.237.102 1.088.088 2.174.181 3.257.28 1.113.115 2.394.164 3.841.153.056-.707.114-1.415.174-2.122-.281-.016-.562-.031-.843-.045-2.371-.18-4.357-.269-5.946-.29-.209-.001-.419-.001-.628-.002.154-.422.309-.844.464-1.266 2.395-.142 4.776-.084 7.137.172.221-5.866.565-11.755 1.033-17.662-2.713-.483-5.445-.933-8.197-1.351 8.978-4.352 18.098-8.317 27.334-11.897zm-13.928 15.021c-.686 6.667-1.208 13.312-1.568 19.929 3.69.614 6.951 1.448 9.793 2.464 1.191.43 2.376.867 3.557 1.311.046.01.298.094.753.255.22-.369.338-.586.352-.654.155-.325.311-.649.468-.974.063-.148.188-.399.376-.752-3.705-1.643-7.766-2.78-12.174-3.367.345-5.322.795-10.661 1.351-16.013-.965-.737-1.934-1.47-2.908-2.199zm4.533 3.25c-.484 4.588-.89 9.166-1.218 13.732.444.099.696.167.755.199 1.015.233 2.025.472 3.033.714 1.61.365 3.769 1.098 6.445 2.227.263.112.526.224.788.337.958-2.039 2.235-4.185 3.847-6.43-4.448-3.672-8.998-7.267-13.65-10.779zm33.71-5.322c1.622 2.086 4.795 4.631 9.375 7.759-.849.175-1.33.282-1.442.317-1.545.382-3.089.775-4.632 1.18-2.097.544-3.609.988-4.54 1.307-.149.051-.517.193-1.103.425 5.119 4.7 10.083 9.505 14.888 14.408 4.772 1.349 9.464 2.808 14.07 4.372-10.09 2.756-20.069 6.028-29.895 9.814-.457-.224-.915-.447-1.373-.668 9.034-3.517 18.198-6.598 27.461-9.245-3.745-1.214-7.545-2.36-11.398-3.434-5.134-5.189-10.448-10.268-15.938-15.226 1.18-.683 2.595-1.308 4.24-1.866 2.018-.685 4.306-1.309 6.859-1.855-.317-.219-.635-.437-.953-.655-3.4-2.338-5.974-4.58-7.655-6.787.679.049 1.358.101 2.036.154z"/><path d="m309.667 104.143c9.852-2.629 19.792-4.843 29.791-6.643-2.613 2.394-5.175 4.815-7.686 7.262 2.982 14.465 5.964 28.93 8.946 43.394.144-.029.288-.059.433-.088.657-.091 1.314-.181 1.971-.268.162-.032.324-.064.487-.096-2.831-14.396-5.662-28.793-8.492-43.19 1.926-1.911 3.883-3.807 5.871-5.687.345.248.689.496 1.033.745-1.782 1.698-3.538 3.409-5.27 5.133 2.737 14.246 5.474 28.491 8.211 42.737 1.645-.202 3.207-.432 4.69-.692 5.747-1.008 9.957-2.585 12.69-4.917 2.728-2.329 4.378-5.75 4.93-10.32 4.419 7.087 8.421 11.874 12.226 14.337-18.884 1.527-37.657 4.748-56.072 9.662 2.03-2.158 4.103-4.295 6.218-6.412-3.394-14.004-6.788-28.009-10.183-42.014-3.231-1.026-6.496-2.007-9.794-2.943zm75.13 40.99c-.736 1.293-1.461 2.588-2.178 3.886-18.691 1.341-37.285 4.357-55.537 9.048-.53-.249-1.062-.496-1.595-.743 18.546-4.852 37.451-7.979 56.459-9.378.457-.906.918-1.812 1.383-2.716-4.244-3.446-7.859-7.293-10.795-11.612-.09-.144-.181-.287-.271-.431.619.104 1.237.211 1.854.319.153.222.307.443.46.665 2.895 3.838 6.156 7.351 9.757 10.576.155.129.31.257.463.386z"/><path d="m380.069 92.49c10.111-.684 20.245-.953 30.374-.807-3.016 1.849-5.985 3.735-8.908 5.657.145 14.767.29 29.533.435 44.3.146-.001.293-.003.44-.004.66.036 1.319.074 1.979.114.165 0 .33 0 .494-.001-.01-14.67-.02-29.341-.03-44.012 2.25-1.507 4.528-2.994 6.833-4.458.29.309.579.619.867.928-2.069 1.326-4.115 2.67-6.139 4.03-.052 14.505-.105 29.01-.157 43.515 1.647.116 3.22.19 4.721.217 5.816.108 10.245-.635 13.371-2.402 3.12-1.765 5.396-4.808 6.814-9.188 2.975 7.8 5.982 13.262 9.245 16.406-18.838-2.108-37.831-2.523-56.73-1.246 2.392-1.726 4.823-3.425 7.292-5.096-.636-14.394-1.271-28.789-1.907-43.183-2.957-1.627-5.956-3.217-8.994-4.77zm65.683 54.604c-.971 1.128-1.934 2.261-2.886 3.398-18.62-2.255-37.404-2.836-56.109-1.742-.47-.346-.941-.691-1.415-1.036 19.02-1.194 38.127-.662 57.067 1.596.623-.802 1.25-1.603 1.881-2.401-3.506-4.194-6.317-8.659-8.369-13.459-.062-.158-.122-.316-.184-.475.588.221 1.174.443 1.759.668.108.247.216.493.324.74 2.104 4.32 4.631 8.39 7.55 12.244.128.156.255.311.382.467z"/><path d="m518.731 109.503c-.406.145-.813.29-1.218.436-5.204 1.964-9.605 4.796-13.229 8.408-.22-.725-.387-1.261-.503-1.61-1.273-3.813-3.097-6.54-5.413-8.152-2.314-1.607-6.823-3.286-13.536-4.784-3.089-.687-6.816-1.406-11.188-2.096-1.192 6.242-2.385 12.484-3.578 18.727 1.256.238 2.51.484 3.763.737 1.116-5.511 2.232-11.022 3.349-16.533 3.156.439 6.15.986 8.972 1.629 5.195 1.186 8.913 2.527 11.152 3.884 2.243 1.359 4.019 3.351 5.305 5.954-.482-.422-.826-.734-1.027-.934-2.765-2.604-4.872-4.235-6.246-4.931-1.374-.693-4.214-1.592-8.535-2.591-1.302-.299-3.64-.777-7.014-1.375-.432-.076-.863-.152-1.296-.227-1.064 5.141-2.129 10.282-3.193 15.423 3.599.742 7.188 1.541 10.766 2.398 3.08-1.777 6.207-3.513 9.382-5.206-1.521 5.757-3.043 11.515-4.564 17.271-1.832-2.868-3.719-5.722-5.661-8.56-5.253-1.258-10.53-2.391-15.827-3.398-1.454 7.613-2.908 15.226-4.363 22.838 1.158.22 2.314.447 3.471.68 1.409-6.96 2.819-13.92 4.229-20.88 4.178.843 8.344 1.764 12.495 2.764.412.469.822.938 1.231 1.409-4.153-1.021-8.321-1.962-12.503-2.824-1.367 6.602-2.733 13.204-4.101 19.806 7.357 1.522 12.637 2.449 15.927 2.468 3.284.024 6.12-.822 8.541-2.577 1.305-.936 2.62-1.864 3.944-2.785.156-.127.463-.354.918-.68.086 3.196.547 5.873 1.382 8.04.835 2.168 2.462 4.904 4.791 8.242-19.521-6.507-39.552-11.059-59.785-13.654 2.948-1.237 5.935-2.434 8.958-3.586.949-6.088 1.897-12.176 2.846-18.264-3.286-.229-6.333.073-9.1.888-.232-.322-.465-.645-.699-.966 2.507-.909 5.839-1.262 9.965-.986.1-.642.2-1.283.3-1.925-.653-.157-1.119-.255-1.392-.297-3.979-.6-7.768-.052-11.271 1.621 2.295-4.174 6.745-5.884 13.218-4.887.907-5.829 1.815-11.657 2.724-17.486-2.892-2.126-5.832-4.217-8.819-6.271 22.46 2.88 44.707 7.828 66.432 14.842zm-7.521 53.251c-1.317.852-2.626 1.711-3.925 2.578-18.722-6.467-37.937-11.102-57.365-13.904-.23-.41-.463-.82-.696-1.23 19.558 2.766 38.904 7.381 57.758 13.845.868-.623 1.74-1.242 2.617-1.857-3.776-5.21-6.205-10.086-7.108-14.738.532.339 1.063.679 1.591 1.02.921 4.003 3.147 8.43 6.518 13.366.204.307.407.613.61.92zm-12.044-41.675c-1.632 5.885-3.263 11.77-4.894 17.655-.418-.302-.837-.603-1.257-.903 1.605-5.892 3.211-11.784 4.816-17.676.446.307.891.615 1.335.924zm21.577-7.864c-.181.071-.36.143-.54.214-6.341 2.679-10.67 5.351-13.167 7.801-.25-.377-.501-.755-.753-1.132 3.86-3.322 8.481-6.016 13.888-7.989.191.369.382.737.572 1.106z"/><path d="m563.895 126.872c9.515 4.532 15.829 10.842 18.746 18.32 2.93 7.501 1.99 14.91-2.382 22.202-4.137 6.905-9.87 10.907-16.965 12.384-7.115 1.479-14.483.207-22.543-3.643-6.366-3.036-11.399-7.045-15.287-12.261-5.692-7.658-7.22-15.959-3.914-25.155 2.828-7.841 7.946-13.09 15.646-15.372 7.676-2.274 16.751-1.206 26.699 3.525zm-1.532 3.218c-13.216-6.23-23.054-1.12-29.1 14.088-5.619 14.138-2.676 23.317 8.481 28.573 5.223 2.483 10.038 2.709 14.658.598 4.607-2.114 8.83-6.495 12.541-13.287 4.201-7.685 5.717-13.829 4.394-18.438-1.399-4.798-5.081-8.726-10.974-11.534zm19.03 8.101c4.523 4.652 7.1 9.954 7.739 15.722.642 5.776-.736 11.214-3.929 16.353-4.706 7.563-11.253 11.902-19.342 13.515-8.114 1.614-16.27.222-25.019-4.015-5.599-2.708-10.212-6.499-14.039-11.534.026-.064.053-.127.08-.191 3.267 4.085 7.95 7.496 14.135 10.475 8.294 4.002 16.142 5.324 24.051 3.849 7.889-1.474 14.105-5.436 18.368-12.363 3.167-5.154 4.664-10.459 4.314-15.949-.346-5.483-2.524-10.688-6.578-15.462.074-.133.146-.266.22-.4zm-9.568 3.576c-.254-.289-.51-.578-.766-.867-2.936-3.176-5.975-5.503-9.04-6.976-10.153-4.844-18.112-.318-23.621 12.832-4.067 9.632-3.867 17.191.25 22.812-.211.055-.422.11-.632.166-2.589-3.339-4.03-6.764-4.271-10.339-.239-3.572.655-7.875 2.756-12.898 5.826-14.148 14.555-18.988 25.871-13.599 5.112 2.456 8.27 5.475 9.453 8.869z"/><path d="m664.188 197.976c-4.851-2.494-8.289-3.661-10.292-3.687-3.074.001-6.024 1.593-8.88 4.708-.607.662-1.215 1.323-1.821 1.985-8.229 8.967-16.457 17.935-24.686 26.902-2.412-2.217-4.851-4.389-7.314-6.517 1.382-15.528 1.74-31.425 1.031-47.565-4.394 6.081-8.787 12.162-13.181 18.243-.381.492-.761.985-1.142 1.477-.973 1.752-1.948 3.501-2.929 5.249-.994 2.695-.786 5.373.586 8.065.063.169.128.339.192.508-3.434-4.176-3.237-9.011.755-14.624.771-1.045 1.543-2.09 2.314-3.135 4.396-6.147 8.793-12.294 13.188-18.441-.093-1.852-.199-3.707-.32-5.564-4.566 6.518-9.133 13.036-13.699 19.554-4.342 6.204-6.607 10.671-6.84 13.388-.229 2.725 1.402 5.981 4.79 9.901.545 2.027 1.068 4.054 1.569 6.08-8.054-6.316-16.346-12.181-24.842-17.595-.051-.475-.103-.95-.155-1.425 7.894 4.998 15.612 10.382 23.129 16.153-.318-1.203-.645-2.405-.979-3.607-7.081-5.332-14.336-10.327-21.742-14.984 4.521 1.41 7.975 1.762 10.387.914 2.405-.848 5.022-3.309 7.819-7.423 6.21-9.144 12.42-18.288 18.63-27.432-1.533-2.898-3.111-5.786-4.734-8.662 9.339 6.036 18.466 12.536 27.346 19.501-3.301-.921-6.594-1.784-9.879-2.591.763 16.82.396 33.381-1.056 49.546 1.102-1.239 2.202-2.479 3.303-3.718 1.137-13.931 1.476-28.146.987-42.562 3.24.822 6.489 1.7 9.745 2.634.166.47.331.94.495 1.411-2.876-.836-5.747-1.627-8.612-2.375.313 13.271-.07 26.365-1.129 39.219 4.284-4.823 8.568-9.646 12.853-14.47.486-.547.973-1.095 1.459-1.643 3.194-3.592 4.858-6.413 4.972-8.467.114-2.049-1.218-5.303-4.115-9.676 7.815 6.533 15.422 13.442 22.797 20.725zm-.465 3.859c-.582.004-1.163.01-1.743.018-2.819-2.099-5.151-3.059-6.962-2.938-1.814.12-3.808 1.346-5.989 3.654-9.787 10.347-19.574 20.694-29.361 31.042-3.004-2.844-6.05-5.617-9.137-8.319.059-.444.117-.889.175-1.333 2.9 2.527 5.766 5.116 8.594 7.768 9.386-10.023 18.771-20.045 28.157-30.068 2.661-2.845 5.104-4.278 7.345-4.266 2.235.012 5.23 1.459 8.921 4.442z"/></g><path d="m203.544 153.239c-.635 6.503-1.098 12.976-1.392 19.41-3.117-3.106-6.762-4.597-10.946-4.375-4.178.224-8.627 2.124-13.204 5.76-6.519 5.185-10.177 11.018-10.942 17.08-.772 6.079 1.421 11.769 6.339 17.111 10.98 11.752 23.029 11.018 37.306-.107 2.451-1.893 4.924-3.746 7.417-5.558-4.209-5.806-8.418-11.611-12.627-17.416-4.166 3.027-8.277 6.162-12.333 9.402-2.638 2.109-4.585 3.565-5.873 4.315-1.288.751-2.719 1.256-4.303 1.521-.225-.263-.449-.525-.673-.788 1.628-.412 3.089-1.003 4.388-1.78 1.299-.776 3.241-2.234 5.857-4.324 4.022-3.21 8.1-6.316 12.23-9.319-.438-.604-.876-1.208-1.314-1.812-4.641 3.374-9.217 6.878-13.723 10.514-.729.588-1.457 1.18-2.182 1.775-4.794 3.944-8.11 4.899-10.074 2.64-.759-.877-1.009-1.979-.736-3.306.272-1.326.985-2.479 2.135-3.444.853-.717 1.771-1.138 2.747-1.263s1.69.095 2.145.65c.77.942.692 1.915-.224 2.926-.346.377-.691.754-1.036 1.133-.335.389-.44.659-.316.806.231.276.877-.036 1.946-.924.55-.458 1.102-.913 1.655-1.366 10.728-8.801 21.86-16.859 33.33-24.176-1.396 3.104-2.74 6.215-4.029 9.332 3.799 5.654 7.597 11.308 11.396 16.962 2.879-.106 5.741-.167 8.586-.185-8.089 5.18-15.993 10.766-23.684 16.758-1.52 1.184-3.032 2.384-4.535 3.6-3.779 3.058-7.124 5.353-10.108 6.822-2.983 1.471-6.426 2.526-10.373 3.213-9.261 1.688-17.008-.101-23.063-6.141-6.233-6.206-8.242-14.033-5.416-23.459 2.452-8.22 7.728-15.808 15.672-22.223 3.551-2.867 7.98-5.697 13.266-8.37 5.409-2.724 8.902-4.514 10.452-5.59 2.274-1.57 4.344-3.499 6.239-5.804zm-8.877 16.972c-.419.083-.839.167-1.258.251-5.292 1.1-9.6 2.992-12.832 5.549-3.922 3.104-6.563 6.752-7.878 10.81-.926 2.966-.92 5.845-.01 8.611.909 2.77 2.836 5.789 5.749 9.077 3.702 4.178 7.149 6.822 10.302 7.991 3.156 1.171 7.101 1.269 11.83.435.097.117.194.234.291.351-4.694 1.415-8.937 1.555-12.767.306-3.825-1.25-7.75-4.042-11.716-8.466-4.372-4.871-6.368-9.94-5.807-15.245.555-5.292 3.627-10.294 9.185-14.699 4.833-3.826 9.818-5.537 14.766-5.172.048.068.097.135.145.201zm27.974-1.306c-1.03 2.326-2.029 4.655-2.999 6.988 3.539 5.429 7.077 10.858 10.615 16.287 4.094.478 8.143 1.042 12.144 1.689-6.302 3.804-12.5 7.853-18.58 12.145-5.459 3.967-10.818 8.132-16.065 12.494-.998.816-1.774 1.425-2.335 1.82-1.961 1.384-4.291 2.371-7.014 2.989.304-.266.608-.53.913-.794 2.517-1.083 5.483-3.068 8.968-5.89.73-.608 1.462-1.213 2.196-1.813 9.255-7.352 18.83-14.105 28.672-20.26-3.299-.43-6.629-.803-9.989-1.118-3.725-5.653-7.45-11.307-11.175-16.96 1.065-2.624 2.168-5.244 3.309-7.859.448.092.894.187 1.34.282zm-14.382-15.615c-.621 5.916-1.099 11.808-1.435 17.67-.501.16-1.002.321-1.504.483.326-5.891.795-11.812 1.409-17.758.51-.133 1.02-.265 1.53-.395z"/><path d="m271.595 116.558c-1.493 2.328-2.953 4.664-4.38 7.008 5.505 4.258 10.865 8.629 16.077 13.107.647-.567 1.297-1.133 1.949-1.697-4.684-4.079-9.489-8.071-14.413-11.973 1.462-2.395 2.959-4.781 4.491-7.158.575-.054 1.15-.106 1.725-.158-1.463 2.267-2.895 4.542-4.294 6.825 4.636 3.721 9.166 7.523 13.586 11.402.371-.399.585-.638.643-.718.497-.59.996-1.179 1.498-1.767.926-1.031 1.503-1.727 1.72-2.095 2.034 2.63 4.47 4.773 7.287 6.461-1.11.31-1.91.551-2.398.716-3.576 1.212-6.038 2.545-7.39 3.922 5.706 5.136 11.227 10.4 16.558 15.783 3.153.646 6.275 1.34 9.366 2.081-8.842 2.669-17.59 5.734-26.217 9.195 1.76-2.433 3.564-4.851 5.414-7.252-3.353-3.055-6.773-6.063-10.26-9.022-2.835 4.422-4.675 8.37-5.633 11.789-.433.096-.865.193-1.298.291.969-3.374 2.871-7.484 5.851-12.275.093-.186.187-.372.28-.558-.568-.428-1.138-.855-1.71-1.281-3.3 4.273-5.554 8.703-6.808 13.215-.476-.228-.953-.455-1.431-.68-2.752-1.283-6.172-2.6-10.302-3.883-.249-.066-.497-.131-.746-.196-.699 5.571-.297 9.668 1.008 12.319.771 1.562 1.787 2.7 3.04 3.426 1.251.729 3.876 1.68 7.799 2.96.338.117.868.297 1.586.543-8.968 4.139-17.781 8.726-26.403 13.762-.507-.136-1.016-.271-1.524-.404 8.143-4.794 16.457-9.189 24.913-13.185-.407-.129-.813-.257-1.221-.384-3.147-.949-5.361-1.772-6.595-2.534-1.235-.76-2.229-1.877-2.97-3.361-1.255-2.521-1.742-6.987-1.217-13.439-1.058-.196-2.119-.387-3.184-.572-.074 1.021-.086 2.476-.026 4.36.048 1.551.105 3.1.169 4.646.087 2.496.486 4.404 1.166 5.732.705 1.378 1.612 2.357 2.713 2.944 1.101.589 3.074 1.152 5.888 1.743.273.051.689.141 1.246.269-8.332 4.048-16.523 8.485-24.546 13.31 3.536-4.511 5.903-8.989 7.046-13.556 1.142-4.563 1.465-10.768 1.112-18.684-.017-.208-.033-.417-.049-.626-2.455-.145-5.549.595-9.234 2.283.872-3.053 1.302-5.953 1.255-8.706.678.051 1.09.085 1.237.102 1.088.088 2.174.181 3.257.28 1.113.115 2.394.164 3.841.153.056-.707.114-1.415.174-2.122-.281-.016-.562-.031-.843-.045-2.371-.18-4.357-.269-5.946-.29-.209-.001-.419-.001-.628-.002.154-.422.309-.844.464-1.266 2.395-.142 4.776-.084 7.137.172.221-5.866.565-11.755 1.033-17.662-2.713-.483-5.445-.933-8.197-1.351 8.978-4.352 18.098-8.317 27.334-11.897zm-13.928 15.021c-.686 6.667-1.208 13.312-1.568 19.929 3.69.614 6.951 1.448 9.793 2.464 1.191.43 2.376.867 3.557 1.311.046.01.298.094.753.255.22-.369.338-.586.352-.654.155-.325.311-.649.468-.974.063-.148.188-.399.376-.752-3.705-1.643-7.766-2.78-12.174-3.367.345-5.322.795-10.661 1.351-16.013-.965-.737-1.934-1.47-2.908-2.199zm4.533 3.25c-.484 4.588-.89 9.166-1.218 13.732.444.099.696.167.755.199 1.015.233 2.025.472 3.033.714 1.61.365 3.769 1.098 6.445 2.227.263.112.526.224.788.337.958-2.039 2.235-4.185 3.847-6.43-4.448-3.672-8.998-7.267-13.65-10.779zm33.71-5.322c1.622 2.086 4.795 4.631 9.375 7.759-.849.175-1.33.282-1.442.317-1.545.382-3.089.775-4.632 1.18-2.097.544-3.609.988-4.54 1.307-.149.051-.517.193-1.103.425 5.119 4.7 10.083 9.505 14.888 14.408 4.772 1.349 9.464 2.808 14.07 4.372-10.09 2.756-20.069 6.028-29.895 9.814-.457-.224-.915-.447-1.373-.668 9.034-3.517 18.198-6.598 27.461-9.245-3.745-1.214-7.545-2.36-11.398-3.434-5.134-5.189-10.448-10.268-15.938-15.226 1.18-.683 2.595-1.308 4.24-1.866 2.018-.685 4.306-1.309 6.859-1.855-.317-.219-.635-.437-.953-.655-3.4-2.338-5.974-4.58-7.655-6.787.679.049 1.358.101 2.036.154z"/><path d="m309.667 104.143c9.852-2.629 19.792-4.843 29.791-6.643-2.613 2.394-5.175 4.815-7.686 7.262 2.982 14.465 5.964 28.93 8.946 43.394.144-.029.288-.059.433-.088.657-.091 1.314-.181 1.971-.268.162-.032.324-.064.487-.096-2.831-14.396-5.662-28.793-8.492-43.19 1.926-1.911 3.883-3.807 5.871-5.687.345.248.689.496 1.033.745-1.782 1.698-3.538 3.409-5.27 5.133 2.737 14.246 5.474 28.491 8.211 42.737 1.645-.202 3.207-.432 4.69-.692 5.747-1.008 9.957-2.585 12.69-4.917 2.728-2.329 4.378-5.75 4.93-10.32 4.419 7.087 8.421 11.874 12.226 14.337-18.884 1.527-37.657 4.748-56.072 9.662 2.03-2.158 4.103-4.295 6.218-6.412-3.394-14.004-6.788-28.009-10.183-42.014-3.231-1.026-6.496-2.007-9.794-2.943zm75.13 40.99c-.736 1.293-1.461 2.588-2.178 3.886-18.691 1.341-37.285 4.357-55.537 9.048-.53-.249-1.062-.496-1.595-.743 18.546-4.852 37.451-7.979 56.459-9.378.457-.906.918-1.812 1.383-2.716-4.244-3.446-7.859-7.293-10.795-11.612-.09-.144-.181-.287-.271-.431.619.104 1.237.211 1.854.319.153.222.307.443.46.665 2.895 3.838 6.156 7.351 9.757 10.576.155.129.31.257.463.386z"/><path d="m380.069 92.49c10.111-.684 20.245-.953 30.374-.807-3.016 1.849-5.985 3.735-8.908 5.657.145 14.767.29 29.533.435 44.3.146-.001.293-.003.44-.004.66.036 1.319.074 1.979.114.165 0 .33 0 .494-.001-.01-14.67-.02-29.341-.03-44.012 2.25-1.507 4.528-2.994 6.833-4.458.29.309.579.619.867.928-2.069 1.326-4.115 2.67-6.139 4.03-.052 14.505-.105 29.01-.157 43.515 1.647.116 3.22.19 4.721.217 5.816.108 10.245-.635 13.371-2.402 3.12-1.765 5.396-4.808 6.814-9.188 2.975 7.8 5.982 13.262 9.245 16.406-18.838-2.108-37.831-2.523-56.73-1.246 2.392-1.726 4.823-3.425 7.292-5.096-.636-14.394-1.271-28.789-1.907-43.183-2.957-1.627-5.956-3.217-8.994-4.77zm65.683 54.604c-.971 1.128-1.934 2.261-2.886 3.398-18.62-2.255-37.404-2.836-56.109-1.742-.47-.346-.941-.691-1.415-1.036 19.02-1.194 38.127-.662 57.067 1.596.623-.802 1.25-1.603 1.881-2.401-3.506-4.194-6.317-8.659-8.369-13.459-.062-.158-.122-.316-.184-.475.588.221 1.174.443 1.759.668.108.247.216.493.324.74 2.104 4.32 4.631 8.39 7.55 12.244.128.156.255.311.382.467z"/><path d="m518.731 109.503c-.406.145-.813.29-1.218.436-5.204 1.964-9.605 4.796-13.229 8.408-.22-.725-.387-1.261-.503-1.61-1.273-3.813-3.097-6.54-5.413-8.152-2.314-1.607-6.823-3.286-13.536-4.784-3.089-.687-6.816-1.406-11.188-2.096-1.192 6.242-2.385 12.484-3.578 18.727 1.256.238 2.51.484 3.763.737 1.116-5.511 2.232-11.022 3.349-16.533 3.156.439 6.15.986 8.972 1.629 5.195 1.186 8.913 2.527 11.152 3.884 2.243 1.359 4.019 3.351 5.305 5.954-.482-.422-.826-.734-1.027-.934-2.765-2.604-4.872-4.235-6.246-4.931-1.374-.693-4.214-1.592-8.535-2.591-1.302-.299-3.64-.777-7.014-1.375-.432-.076-.863-.152-1.296-.227-1.064 5.141-2.129 10.282-3.193 15.423 3.599.742 7.188 1.541 10.766 2.398 3.08-1.777 6.207-3.513 9.382-5.206-1.521 5.757-3.043 11.515-4.564 17.271-1.832-2.868-3.719-5.722-5.661-8.56-5.253-1.258-10.53-2.391-15.827-3.398-1.454 7.613-2.908 15.226-4.363 22.838 1.158.22 2.314.447 3.471.68 1.409-6.96 2.819-13.92 4.229-20.88 4.178.843 8.344 1.764 12.495 2.764.412.469.822.938 1.231 1.409-4.153-1.021-8.321-1.962-12.503-2.824-1.367 6.602-2.733 13.204-4.101 19.806 7.357 1.522 12.637 2.449 15.927 2.468 3.284.024 6.12-.822 8.541-2.577 1.305-.936 2.62-1.864 3.944-2.785.156-.127.463-.354.918-.68.086 3.196.547 5.873 1.382 8.04.835 2.168 2.462 4.904 4.791 8.242-19.521-6.507-39.552-11.059-59.785-13.654 2.948-1.237 5.935-2.434 8.958-3.586.949-6.088 1.897-12.176 2.846-18.264-3.286-.229-6.333.073-9.1.888-.232-.322-.465-.645-.699-.966 2.507-.909 5.839-1.262 9.965-.986.1-.642.2-1.283.3-1.925-.653-.157-1.119-.255-1.392-.297-3.979-.6-7.768-.052-11.271 1.621 2.295-4.174 6.745-5.884 13.218-4.887.907-5.829 1.815-11.657 2.724-17.486-2.892-2.126-5.832-4.217-8.819-6.271 22.46 2.88 44.707 7.828 66.432 14.842zm-7.521 53.251c-1.317.852-2.626 1.711-3.925 2.578-18.722-6.467-37.937-11.102-57.365-13.904-.23-.41-.463-.82-.696-1.23 19.558 2.766 38.904 7.381 57.758 13.845.868-.623 1.74-1.242 2.617-1.857-3.776-5.21-6.205-10.086-7.108-14.738.532.339 1.063.679 1.591 1.02.921 4.003 3.147 8.43 6.518 13.366.204.307.407.613.61.92zm-12.044-41.675c-1.632 5.885-3.263 11.77-4.894 17.655-.418-.302-.837-.603-1.257-.903 1.605-5.892 3.211-11.784 4.816-17.676.446.307.891.615 1.335.924zm21.577-7.864c-.181.071-.36.143-.54.214-6.341 2.679-10.67 5.351-13.167 7.801-.25-.377-.501-.755-.753-1.132 3.86-3.322 8.481-6.016 13.888-7.989.191.369.382.737.572 1.106z"/><path d="m563.895 126.872c9.515 4.532 15.829 10.842 18.746 18.32 2.93 7.501 1.99 14.91-2.382 22.202-4.137 6.905-9.87 10.907-16.965 12.384-7.115 1.479-14.483.207-22.543-3.643-6.366-3.036-11.399-7.045-15.287-12.261-5.692-7.658-7.22-15.959-3.914-25.155 2.828-7.841 7.946-13.09 15.646-15.372 7.676-2.274 16.751-1.206 26.699 3.525zm-1.532 3.218c-13.216-6.23-23.054-1.12-29.1 14.088-5.619 14.138-2.676 23.317 8.481 28.573 5.223 2.483 10.038 2.709 14.658.598 4.607-2.114 8.83-6.495 12.541-13.287 4.201-7.685 5.717-13.829 4.394-18.438-1.399-4.798-5.081-8.726-10.974-11.534zm19.03 8.101c4.523 4.652 7.1 9.954 7.739 15.722.642 5.776-.736 11.214-3.929 16.353-4.706 7.563-11.253 11.902-19.342 13.515-8.114 1.614-16.27.222-25.019-4.015-5.599-2.708-10.212-6.499-14.039-11.534.026-.064.053-.127.08-.191 3.267 4.085 7.95 7.496 14.135 10.475 8.294 4.002 16.142 5.324 24.051 3.849 7.889-1.474 14.105-5.436 18.368-12.363 3.167-5.154 4.664-10.459 4.314-15.949-.346-5.483-2.524-10.688-6.578-15.462.074-.133.146-.266.22-.4zm-9.568 3.576c-.254-.289-.51-.578-.766-.867-2.936-3.176-5.975-5.503-9.04-6.976-10.153-4.844-18.112-.318-23.621 12.832-4.067 9.632-3.867 17.191.25 22.812-.211.055-.422.11-.632.166-2.589-3.339-4.03-6.764-4.271-10.339-.239-3.572.655-7.875 2.756-12.898 5.826-14.148 14.555-18.988 25.871-13.599 5.112 2.456 8.27 5.475 9.453 8.869z"/><path d="m664.188 197.976c-4.851-2.494-8.289-3.661-10.292-3.687-3.074.001-6.024 1.593-8.88 4.708-.607.662-1.215 1.323-1.821 1.985-8.229 8.967-16.457 17.935-24.686 26.902-2.412-2.217-4.851-4.389-7.314-6.517 1.382-15.528 1.74-31.425 1.031-47.565-4.394 6.081-8.787 12.162-13.181 18.243-.381.492-.761.985-1.142 1.477-.973 1.752-1.948 3.501-2.929 5.249-.994 2.695-.786 5.373.586 8.065.063.169.128.339.192.508-3.434-4.176-3.237-9.011.755-14.624.771-1.045 1.543-2.09 2.314-3.135 4.396-6.147 8.793-12.294 13.188-18.441-.093-1.852-.199-3.707-.32-5.564-4.566 6.518-9.133 13.036-13.699 19.554-4.342 6.204-6.607 10.671-6.84 13.388-.229 2.725 1.402 5.981 4.79 9.901.545 2.027 1.068 4.054 1.569 6.08-8.054-6.316-16.346-12.181-24.842-17.595-.051-.475-.103-.95-.155-1.425 7.894 4.998 15.612 10.382 23.129 16.153-.318-1.203-.645-2.405-.979-3.607-7.081-5.332-14.336-10.327-21.742-14.984 4.521 1.41 7.975 1.762 10.387.914 2.405-.848 5.022-3.309 7.819-7.423 6.21-9.144 12.42-18.288 18.63-27.432-1.533-2.898-3.111-5.786-4.734-8.662 9.339 6.036 18.466 12.536 27.346 19.501-3.301-.921-6.594-1.784-9.879-2.591.763 16.82.396 33.381-1.056 49.546 1.102-1.239 2.202-2.479 3.303-3.718 1.137-13.931 1.476-28.146.987-42.562 3.24.822 6.489 1.7 9.745 2.634.166.47.331.94.495 1.411-2.876-.836-5.747-1.627-8.612-2.375.313 13.271-.07 26.365-1.129 39.219 4.284-4.823 8.568-9.646 12.853-14.47.486-.547.973-1.095 1.459-1.643 3.194-3.592 4.858-6.413 4.972-8.467.114-2.049-1.218-5.303-4.115-9.676 7.815 6.533 15.422 13.442 22.797 20.725zm-.465 3.859c-.582.004-1.163.01-1.743.018-2.819-2.099-5.151-3.059-6.962-2.938-1.814.12-3.808 1.346-5.989 3.654-9.787 10.347-19.574 20.694-29.361 31.042-3.004-2.844-6.05-5.617-9.137-8.319.059-.444.117-.889.175-1.333 2.9 2.527 5.766 5.116 8.594 7.768 9.386-10.023 18.771-20.045 28.157-30.068 2.661-2.845 5.104-4.278 7.345-4.266 2.235.012 5.23 1.459 8.921 4.442z"/></g></svg>