<svg enable-background="new 0 0 843.545 843.544" height="843.544" viewBox="0 0 843.545 843.544" width="843.545" xmlns="http://www.w3.org/2000/svg"><path d="m818.077 414.004c0-214.24-174.296-388.537-388.536-388.537-155.244 0-289.492 91.534-351.666 223.455-33.273 56.215-52.408 121.744-52.408 191.669 0 208.146 169.34 377.484 377.489 377.484 69.922 0 135.452-19.133 191.67-52.408 131.917-62.175 223.451-196.423 223.451-351.663z" fill="#4b2e19" stroke="#382d15" stroke-miterlimit="10" stroke-width="50.9352"/><path d="m809.34 414.004c0 209.755-170.043 379.8-379.799 379.8-209.752 0-379.796-170.045-379.796-379.8 0-209.756 170.043-379.798 379.796-379.798 209.756 0 379.799 170.043 379.799 379.798z" fill="#7f5321" stroke="#4b2e19" stroke-miterlimit="10" stroke-width="17.4754"/><path d="m785.546 430.393c0 203.793-165.207 368.998-368.994 368.998-203.794 0-368.998-165.205-368.998-368.998 0-203.787 165.204-368.995 368.998-368.995 203.787 0 368.994 165.208 368.994 368.995z" fill="#4b2e19"/><path d="m771.951 440.592c0 203.789-165.209 368.996-368.995 368.996-203.795 0-368.999-165.207-368.999-368.996 0-203.793 165.204-368.997 368.999-368.997 203.786 0 368.995 165.204 368.995 368.997z" fill="#8d662d" stroke="#4b2e19" stroke-miterlimit="10" stroke-width="16.9784"/><path d="m726.378 618.336c29.035-52.725 45.573-113.303 45.573-177.744 0-203.793-165.209-368.997-368.995-368.997-40.65 0-79.753 6.589-116.327 18.732z" fill="#fff" opacity=".3"/><path d="m79.53 262.851c-29.035 52.722-45.573 113.298-45.573 177.741 0 203.789 165.204 368.996 368.999 368.996 40.644 0 79.749-6.594 116.321-18.729z" fill="#4b2e19" opacity=".3"/><g stroke-miterlimit="10"><path d="m757.238 440.021c0 195.355-158.364 353.719-353.718 353.719-195.352 0-353.714-158.363-353.714-353.719 0-195.35 158.362-353.713 353.714-353.713 195.354 0 353.718 158.364 353.718 353.713z" fill="none" opacity=".3" stroke="#fff" stroke-width="16.2753"/><path d="m675.787 441.268c0 151.057-122.457 273.515-273.513 273.515s-273.511-122.458-273.511-273.515c0-151.055 122.455-273.51 273.511-273.51s273.513 122.455 273.513 273.51z" fill="#8d662d" stroke="#4b2e19" stroke-width="18.1393"/><circle cx="404.616" cy="443.611" fill="#8d662d" opacity=".4" r="260.635" stroke="#4b2e19" stroke-width="17.2853"/><path d="m694.123 442.38c0 161.797-131.164 292.961-292.958 292.961-161.797 0-292.96-131.164-292.96-292.961 0-161.795 131.163-292.957 292.96-292.957 161.794 0 292.958 131.162 292.958 292.957z" fill="none" opacity=".3" stroke="#fff" stroke-width="18.6243"/></g><path d="m428.58 685.551c-137.704 0-249.345-111.635-249.345-249.345s111.641-249.345 249.345-249.345c56.955 0 109.412 19.138 151.396 51.271-46.826-38.829-106.946-62.183-172.533-62.183-149.387 0-270.488 121.105-270.488 270.489 0 149.38 121.101 270.479 270.488 270.479 149.381 0 270.482-121.1 270.482-270.479 0-1.716-.096-3.411-.128-5.115-2.733 135.334-113.222 244.228-249.217 244.228z" fill="#4b2e19" opacity=".6"/><path d="m418.646 183.359 243.754 298.76c1.858-12.568 2.852-25.423 2.852-38.508-.001-139.235-109.188-252.96-246.606-260.252z" fill="#fff" opacity=".2"/><path d="m390.604 711.626-243.755-298.761c-1.86 12.572-2.852 25.423-2.852 38.513 0 139.235 109.184 252.955 246.607 260.248z" fill="#4b2e19" opacity=".3"/><circle cx="137.284" cy="260.392" fill="#8d662d" r="11.999" stroke="#4b2e19" stroke-miterlimit="10" stroke-width="6"/><path d="m133.028 252.812c.085 4.535 3.781 8.187 8.337 8.187 1.043 0 2.038-.2 2.959-.55-.085-4.535-3.781-8.187-8.336-8.187-1.044 0-2.039.2-2.96.55z" fill="#fff" opacity=".5"/><circle cx="673.284" cy="260.392" fill="#8d662d" r="11.999" stroke="#4b2e19" stroke-miterlimit="10" stroke-width="6"/><path d="m669.028 252.812c.085 4.535 3.781 8.187 8.337 8.187 1.043 0 2.038-.2 2.959-.55-.085-4.535-3.781-8.187-8.336-8.187-1.045 0-2.039.2-2.96.55z" fill="#fff" opacity=".5"/><circle cx="137.284" cy="641.655" fill="#8d662d" r="11.999" stroke="#4b2e19" stroke-miterlimit="10" stroke-width="6"/><path d="m133.028 634.075c.085 4.535 3.781 8.187 8.337 8.187 1.043 0 2.038-.199 2.959-.551-.085-4.534-3.781-8.186-8.336-8.186-1.044 0-2.039.2-2.96.55z" fill="#fff" opacity=".5"/><circle cx="673.284" cy="641.655" fill="#8d662d" r="11.999" stroke="#4b2e19" stroke-miterlimit="10" stroke-width="6"/><path d="m669.028 634.075c.085 4.535 3.781 8.187 8.337 8.187 1.043 0 2.038-.199 2.959-.551-.085-4.534-3.781-8.186-8.336-8.186-1.045 0-2.039.2-2.96.55z" fill="#fff" opacity=".5"/><circle cx="724.948" cy="452.205" fill="#8d662d" r="12" stroke="#4b2e19" stroke-miterlimit="10" stroke-width="6"/><path d="m720.691 444.625c.086 4.535 3.781 8.188 8.338 8.188 1.043 0 2.037-.2 2.959-.551-.086-4.535-3.781-8.187-8.336-8.187-1.045 0-2.039.2-2.961.55z" fill="#fff" opacity=".5"/><circle cx="76.948" cy="452.205" fill="#8d662d" r="11.999" stroke="#4b2e19" stroke-miterlimit="10" stroke-width="6"/><path d="m72.692 444.625c.085 4.535 3.781 8.188 8.337 8.188 1.043 0 2.038-.2 2.959-.551-.085-4.535-3.781-8.187-8.336-8.187-1.045 0-2.039.2-2.96.55z" fill="#fff" opacity=".5"/><circle cx="397.907" cy="767.654" fill="#8d662d" r="11.999" stroke="#4b2e19" stroke-miterlimit="10" stroke-width="6"/><path d="m393.651 760.074c.085 4.535 3.781 8.188 8.337 8.188 1.043 0 2.038-.2 2.959-.551-.085-4.535-3.781-8.187-8.336-8.187-1.044 0-2.039.201-2.96.55z" fill="#fff" opacity=".5"/><path d="m366.129 540.604c13.821-23.043 15.285-46.695 14.379-70.899-.349-9.104-2.916-15.45-11.528-20.042-9.191-4.898-17.18-12.045-26.123-17.494-8.577-5.212-9.079-10.937-2.834-18.062 2.014-2.304 4.195-4.454 6.259-6.705 10.627-11.577 26.019-19.691 26.339-37.713 7.105 0 13.135.817 18.775-.305 3.651-.718 8.097-3.662 9.564-6.822.947-2.054-2.175-8.417-4.617-9.187-10.908-3.396-19.803-16.978-34.083-6.799-4.918-13.515.248-24.799 10.154-31.164 14.339-9.225 30.262-16.442 46.31-22.391 11.655-4.316 22.979.064 32.853 8.215 5.574 4.596 12.274 8.035 18.86 11.179 9.593 4.599 15.807 17.011 14.489 31.077-17.899-1.925-32.994 2.808-45.399 19.89 5.23.326 8.195 1.136 10.847.549 9.281-2.076 15.513-1.044 15.37 10.778-.024 2.583 3.834 5.248 5.961 7.818 10.874 13.094 21.964 26.022 32.547 39.356 4.657 5.851 3.52 11.336-3.399 15.181-6.109 3.378-11.733 8.137-18.233 10.199-10.827 3.438-13.324 11.402-14.216 20.926-2.712 28.684-3.125 57.824-8.813 85.902-3.732 18.423-5.563 36.264-4.197 54.622.959 12.96 2.133 26.068 5.115 38.656 2.575 10.909.195 20.985-8.121 25.407-7.347 3.926-17.923 2.196-27.005 1.731-.762-.032-3.424-11.96-1.207-13.959 27.368-24.786 19.509-53.428 10.311-82.419-.656-2.084-1.521-4.142-1.853-6.264-3.032-19.661-5.634-21.168-24.543-15.418-1.75 16.074-5.564 31.588-4.543 46.784 1.206 17.947 6.666 35.587 10.08 53.387 1 5.211 1.335 10.54 1.975 15.813-5.197.433-10.615 2.015-15.567 1.103-19.507-3.57-20.307-6.696-13.942-25.648 6.404-19.021 11.998-38.451.567-58.16-2.125-3.661-1.223-9.503-.64-14.204 1.975-15.975 2.738-31.072-19.892-34.918zm6.436-136.182c-6.708 6.233-11.574 10.742-17.458 16.201 6.95 4.988 12.621 9.057 21.015 15.085-1.384-12.142-2.347-20.643-3.557-31.286z" style="fill-rule:evenodd;clip-rule:evenodd;fill:#8d662d;stroke:#4b2e19;stroke-width:17.2853;stroke-miterlimit:10"/><path clip-rule="evenodd" d="m366.129 540.604c13.821-23.043 15.285-46.695 14.379-70.899-.349-9.104-2.916-15.45-11.528-20.042-9.191-4.898-17.18-12.045-26.123-17.494-8.577-5.212-9.079-10.937-2.834-18.062 2.014-2.304 4.195-4.454 6.259-6.705 10.627-11.577 26.019-19.691 26.339-37.713 7.105 0 13.135.817 18.775-.305 3.651-.718 8.097-3.662 9.564-6.822.947-2.054-2.175-8.417-4.617-9.187-10.908-3.396-19.803-16.978-34.083-6.799-4.918-13.515.248-24.799 10.154-31.164 14.339-9.225 30.262-16.442 46.31-22.391 11.655-4.316 22.979.064 32.853 8.215 5.574 4.596 12.274 8.035 18.86 11.179 9.593 4.599 15.807 17.011 14.489 31.077-17.899-1.925-32.994 2.808-45.399 19.89 5.23.326 8.195 1.136 10.847.549 9.281-2.076 15.513-1.044 15.37 10.778-.024 2.583 3.834 5.248 5.961 7.818 10.874 13.094 21.964 26.022 32.547 39.356 4.657 5.851 3.52 11.336-3.399 15.181-6.109 3.378-11.733 8.137-18.233 10.199-10.827 3.438-13.324 11.402-14.216 20.926-2.712 28.684-3.125 57.824-8.813 85.902-3.732 18.423-5.563 36.264-4.197 54.622.959 12.96 2.133 26.068 5.115 38.656 2.575 10.909.195 20.985-8.121 25.407-7.347 3.926-17.923 2.196-27.005 1.731-.762-.032-3.424-11.96-1.207-13.959 27.368-24.786 19.509-53.428 10.311-82.419-.656-2.084-1.521-4.142-1.853-6.264-3.032-19.661-5.634-21.168-24.543-15.418-1.75 16.074-5.564 31.588-4.543 46.784 1.206 17.947 6.666 35.587 10.08 53.387 1 5.211 1.335 10.54 1.975 15.813-5.197.433-10.615 2.015-15.567 1.103-19.507-3.57-20.307-6.696-13.942-25.648 6.404-19.021 11.998-38.451.567-58.16-2.125-3.661-1.223-9.503-.64-14.204 1.975-15.975 2.738-31.072-19.892-34.918zm6.436-136.182c-6.708 6.233-11.574 10.742-17.458 16.201 6.95 4.988 12.621 9.057 21.015 15.085-1.384-12.142-2.347-20.643-3.557-31.286z" fill="#8d662d" fill-rule="evenodd"/><g fill="#fff"><path d="m478.754 397.353c-5.12-7.881-11.9-13.238-19.603-18.368-2.783-1.854-5.823-3.399-9.023-4.386-2.881-.889-4.337-.488-6.648.793-.902.5-.466 1.851.509 1.878.328.009 3.117.943 4.414 1.31 2.777.785 5.318 2.414 7.68 4.023 6.056 4.129 10.988 10.932 15.075 16.922 3.899 5.715 7.146 12.542 7.088 19.592-.027 3.323-1.126 6.574-2.839 9.385-2.275 3.733-6.123 5.428-9.159 8.33-2.879 2.752.063 7.875 3.899 6.699 8.436-2.584 15.452-12.345 16.168-20.994.747-9.039-2.717-17.726-7.561-25.184z" opacity=".3"/><path d="m460.116 498.792c2.176-14.19 3.606-28.478 3.565-42.846-.043-14.769-2.824-28.432-8.202-42.096-.728-1.851-3.338-1.16-2.982.822 4.96 27.67 3.188 56.097-1.107 83.689-2.169 13.928-4.882 27.765-7.18 41.671-1.659 10.045-2.846 19.762-1.724 29.896 1.938 17.499 6.43 34.691 8.53 52.191 1.726 14.388 3.345 34.429-10.46 43.691-3.02 2.026-.184 6.942 2.863 4.898 13.525-9.076 14.476-26.447 13.412-41.264-1.356-18.896-7.234-37.353-7.734-56.277-.276-10.455 1.994-20.494 3.641-30.785 2.328-14.551 5.143-29.021 7.378-43.59z" opacity=".3"/><path d="m476.902 332.558c-5.101-9.735-13.079-17.975-22.421-23.721-8.965-5.514-21.559-9.167-31.57-4.417-1.885.895-1.007 4.158 1.077 3.975 10.191-.896 18.435.5 27.246 5.999 8.348 5.209 15.35 12.832 19.84 21.572 1.987 3.867 7.849.448 5.828-3.408z" opacity=".3"/></g><g fill="#8d662d" stroke="#4b2e19" stroke-miterlimit="10" stroke-width="8.5852"><path d="m282.282 109.55c7.396-2.354 14.844-4.482 22.334-6.384-1.783 2.303-3.532 4.618-5.247 6.945 2.159 7.916 4.318 15.832 6.478 23.748.584-1.047 1.176-2.092 1.773-3.136-1.857-6.999-3.713-13.997-5.57-20.996 1.383-1.899 2.789-3.791 4.218-5.674.312.23.624.46.935.691-1.314 1.726-2.609 3.458-3.885 5.197 1.684 6.426 3.368 12.852 5.051 19.278 3.349-6.074 6.907-12.105 10.674-18.083 1.628-2.583 2.292-4.719 1.931-6.421-.213-1.01-1.023-1.847-2.438-2.5-1.416-.653-3.028-.93-4.83-.824-.03-.133-.061-.265-.091-.397 8.472-1.939 16.993-3.591 25.548-4.957.021.134.043.269.064.403-5.43 2.021-10.819 6.89-15.745 14.578-1.716 2.647-3.391 5.306-5.023 7.975 7.806 8.217 15.19 16.668 22.144 25.323 2.647 1.033 5.268 2.096 7.859 3.189-7.3 1.142-14.572 2.524-21.804 4.147 1.534-1.708 3.091-3.407 4.673-5.094-4.872-5.872-9.942-11.646-15.208-17.311-1.796 3.211-3.534 6.435-5.212 9.67.985 3.758 1.97 7.517 2.954 11.275 2.944 1.911 5.841 3.859 8.689 5.844-7.059 1.694-14.077 3.622-21.041 5.782-.476-.237-.952-.473-1.429-.707 6.532-2.051 13.112-3.897 19.729-5.54-2.251-1.583-4.533-3.143-6.843-4.681-1.08-4.07-2.16-8.141-3.24-12.211 1.78-3.479 3.628-6.948 5.543-10.402-.469-.501-.94-1.002-1.412-1.502-2.311 4.006-4.528 8.033-6.653 12.076 1.112 4.076 2.224 8.152 3.335 12.228 2.083.967 4.147 1.953 6.191 2.957-6.347 1.627-12.658 3.442-18.925 5.443 1.391-2.113 2.813-4.217 4.264-6.313-4.091-13.623-8.181-27.245-12.271-40.867-2.483-.94-4.991-1.857-7.52-2.749zm59.88-10.227c-4.722.998-9.092 4.138-12.881 9.373-2.255 3.115-4.449 6.25-6.581 9.404 7.457 8.348 14.509 16.909 21.146 25.655 4.458 1.881 8.834 3.849 13.125 5.901-8.881 1.17-17.727 2.699-26.515 4.585-.464-.275-.929-.55-1.395-.824 8.022-1.751 16.092-3.206 24.195-4.362-3.259-1.524-6.566-3.001-9.92-4.428-6.872-8.958-14.183-17.718-21.924-26.248 2.243-3.41 4.558-6.8 6.943-10.168 3.754-5.239 8.208-8.476 13.146-9.651.22.253.44.508.661.763z"/><path d="m404.708 91.173c-3.752 1.567-6.132 3.057-7.19 4.396-1.605 2.079-2.356 5.204-2.294 9.359.013.883.026 1.766.039 2.648.175 11.967.351 23.934.526 35.901-2.399.035-4.798.096-7.196.182-7.144-12.195-15.022-24.164-23.622-35.842.702 7.343 1.405 14.686 2.107 22.029.043.61.087 1.22.13 1.83.363 1.931.723 3.861 1.081 5.792.834 2.651 2.321 4.529 4.447 5.662.122.085.243.17.365.256-4.013-.922-6.388-4.697-7.067-11.432-.111-1.272-.223-2.544-.334-3.816-.733-7.395-1.466-14.79-2.199-22.185-.993-1.335-1.996-2.666-3.008-3.993.825 7.781 1.649 15.563 2.474 23.344.788 7.404 1.83 12.196 3.094 14.389 1.27 2.194 3.84 3.624 7.694 4.377 1.334 1.161 2.655 2.329 3.963 3.505-7.604.524-15.196 1.308-22.76 2.352-.273-.333-.547-.665-.822-.997 7.013-.982 14.049-1.741 21.099-2.278-.788-.689-1.581-1.376-2.379-2.06-6.598.546-13.184 1.286-19.749 2.219 3.269-1.671 5.37-3.541 6.274-5.677.901-2.134 1.086-5.628.522-10.487-1.255-10.795-2.511-21.59-3.767-32.385-2.318-1.249-4.659-2.476-7.024-3.682 8.238-1.098 16.502-1.933 24.781-2.503-2.234 1.447-4.445 2.915-6.631 4.4 8.942 12.095 17.121 24.498 24.521 37.135-.042-1.629-.084-3.259-.125-4.888-6.431-10.815-13.432-21.454-20.995-31.873 2.162-1.463 4.348-2.909 6.558-4.335.326.239.651.478.976.718-1.956 1.256-3.894 2.528-5.813 3.813 6.883 9.654 13.291 19.492 19.217 29.477-.164-6.342-.327-12.684-.49-19.026-.019-.72-.037-1.439-.056-2.159-.12-4.726-.657-7.873-1.628-9.435-.969-1.56-3.301-3.024-7.039-4.319 7.437-.35 14.88-.487 22.32-.412zm1.678 3.037c-.299.403-.597.807-.894 1.211-2.504.458-4.196 1.363-5.08 2.681-.885 1.319-1.313 3.543-1.299 6.667.061 14.006.122 28.012.182 42.018-3.022.013-6.044.067-9.064.162-.194-.361-.389-.722-.584-1.082 2.833-.094 5.667-.151 8.502-.173-.104-13.503-.209-27.006-.314-40.509-.031-3.83.531-6.505 1.706-8.017 1.171-1.512 3.453-2.518 6.845-2.958z"/><path d="m465.307 96.523c-3.225 1.43-6.409 2.899-9.555 4.408-1.255 8.686-2.509 17.371-3.764 26.057-.691 4.787-1.359 8.204-1.991 10.254-.633 2.05-1.532 3.679-2.687 4.892-2.938 3.113-7.836 4.2-14.829 3.534-7.392-.692-12.444-2.692-15.273-6.315-2.249-2.854-3.273-8.147-2.987-15.915.339-9.014.678-18.028 1.017-27.042-2.137-1.739-4.303-3.46-6.498-5.163 7.735.159 15.467.546 23.184 1.164-2.368 1.623-4.706 3.268-7.015 4.933-.557 8.867-1.114 17.734-1.671 26.601-.102 2.09-.203 4.18-.306 6.27-.253 4.042.472 6.962 2.135 8.782 1.667 1.822 4.578 2.887 8.77 3.294 4.616.452 7.932-.436 10.013-2.777 1.668-1.898 2.973-6.245 3.877-13.06 1.212-8.706 2.429-17.411 3.649-26.115-2.247-2.258-4.533-4.496-6.86-6.713 6.949.784 13.881 1.754 20.791 2.911zm1.183 3.013c-2.449 1.137-4.875 2.296-7.276 3.479-1.287 8.337-2.574 16.675-3.861 25.012-1.268 8.19-2.789 13.423-4.521 15.721-3.551 4.646-9.189 6.396-17.134 5.601-6.865-.677-11.908-2.655-15.263-6.18.111.06.222.12.333.181.482.298.964.597 1.444.896 3.375 2.155 7.724 3.435 13.13 3.962 7.723.761 13.117-.846 16.369-5.16 1.73-2.329 3.194-7.3 4.349-14.93 1.296-8.597 2.592-17.195 3.888-25.792 2.626-1.28 5.279-2.533 7.961-3.759.195.324.388.646.581.969zm-32.694-4.774c-1.708 1.204-3.398 2.419-5.074 3.646-.734 10.066-1.469 20.133-2.203 30.2-.083.934-.166 1.868-.248 2.802.33 1.754.654 3.508.971 5.263.588 1.081 1.747 2.424 3.454 4.046.018.124.035.249.054.373-2.322-1.131-3.888-2.595-4.687-4.426-.799-1.829-1.08-4.584-.826-8.271.705-10.164 1.409-20.329 2.113-30.493 1.925-1.365 3.87-2.715 5.835-4.05.204.303.408.606.611.91z"/><path d="m523.479 110.934c-.43.345-.716.579-.86.703-1.58 1.196-3.146 2.402-4.701 3.616-1.619 1.308-3.278 3.065-4.973 5.27-.05.056-.101.111-.151.167-.125-.138-.25-.277-.375-.415.006-.183.012-.366.017-.549.023-3.234-.637-5.68-1.972-7.324-1.334-1.643-3.746-2.974-7.224-3.93-1.422-.391-2.86-.72-4.313-.989-.189-.05-.38-.1-.569-.149-3.715 14.25-7.429 28.5-11.144 42.749 1.281 1.865 2.539 3.736 3.773 5.614-6.31-1.746-12.656-3.305-19.033-4.678 2.288-1.133 4.602-2.243 6.938-3.329 3.078-13.161 6.157-26.323 9.235-39.484-1.117-.275-2.234-.545-3.354-.81-3.257-.73-5.694-.673-7.287.123-1.595.796-2.782 2.536-3.569 5.205-.404-.08-.809-.16-1.214-.238.95-3.054 2.328-5.042 4.145-5.949 1.813-.906 4.543-.985 8.158-.175.947.227 1.895.457 2.841.691.174.04.348.081.521.122.152-.648.304-1.296.455-1.945-1.585-.538-3.113-.968-4.579-1.292-4.115-.908-7.239-.803-9.326.24-2.092 1.043-3.535 3.229-4.349 6.53-.188-.036-.375-.07-.563-.105-.653-3.962-1.999-8.493-4.139-13.568-.074-.151-.149-.301-.224-.452 19.529 3.287 38.864 8.071 57.836 14.351zm-12.257 5.48c-1.992-2.021-4.618-3.5-7.844-4.396-.72-.2-1.483-.367-2.287-.501-3.509 13.195-7.023 26.387-10.546 39.578 1.557 3.069 3.059 6.147 4.506 9.233-6.962-2.042-13.974-3.854-21.024-5.435-.236-.429-.475-.857-.714-1.286 6.634 1.467 13.233 3.137 19.79 5.011-1.263-2.523-2.563-5.04-3.901-7.549 3.657-13.674 7.314-27.349 10.973-41.024.853.214 1.705.431 2.558.651 3.046.838 5.142 1.669 6.289 2.444 1.145.779 1.879 1.873 2.2 3.274zm14.406-2.051c-2.925 1.531-6.434 4.549-10.432 9.09-.103.11-.204.22-.307.33-.256-.353-.513-.705-.771-1.057.083-.102.165-.205.248-.307 3.951-4.648 7.409-7.635 10.271-8.995.104-.051.208-.102.313-.153.228.365.453.729.678 1.092z"/></g><g fill="#a87e47"><path d="m282.259 113.794c7.316-2.625 14.697-5.005 22.129-7.141-1.712 2.358-3.387 4.728-5.023 7.109 2.417 7.841 4.833 15.683 7.25 23.524.545-1.064 1.097-2.126 1.656-3.188-2.08-6.936-4.16-13.871-6.24-20.806 1.321-1.942 2.667-3.877 4.037-5.804.319.22.638.441.956.662-1.261 1.765-2.5 3.537-3.719 5.315 1.887 6.369 3.774 12.738 5.662 19.107 3.129-6.17 6.486-12.301 10.07-18.38 1.549-2.627 2.152-4.78 1.745-6.472-.242-1.003-1.073-1.818-2.505-2.431-1.433-.613-3.053-.844-4.851-.686-.034-.132-.068-.263-.103-.395 8.414-2.185 16.888-4.06 25.405-5.624.024.134.049.268.074.401-5.377 2.147-10.644 7.15-15.341 14.966-1.637 2.692-3.229 5.396-4.775 8.108 8.017 7.994 15.583 16.255 22.686 24.747 2.643.972 5.257 1.978 7.841 3.017-7.171 1.292-14.308 2.841-21.396 4.647 1.46-1.746 2.947-3.481 4.459-5.206-4.988-5.747-10.189-11.381-15.6-16.892-1.684 3.26-3.304 6.531-4.86 9.812 1.104 3.725 2.208 7.45 3.312 11.175 2.978 1.824 5.905 3.69 8.781 5.597-6.908 1.879-13.765 4.007-20.559 6.383-.479-.221-.959-.441-1.439-.66 6.374-2.256 12.804-4.293 19.279-6.113-2.275-1.52-4.583-3.014-6.921-4.483-1.209-4.034-2.419-8.067-3.629-12.101 1.648-3.529 3.37-7.048 5.165-10.554-.482-.488-.966-.975-1.451-1.46-2.171 4.07-4.241 8.159-6.21 12.263 1.245 4.038 2.489 8.075 3.733 12.112 2.095.904 4.17 1.829 6.224 2.775-6.213 1.802-12.383 3.804-18.5 6.006 1.292-2.154 2.616-4.301 3.974-6.439-4.563-13.471-9.126-26.943-13.69-40.414-2.523-.852-5.064-1.679-7.626-2.477zm59.538-11.992c-4.691 1.104-8.981 4.349-12.621 9.678-2.167 3.171-4.266 6.363-6.297 9.571 7.664 8.142 14.894 16.528 21.678 25.124 4.452 1.782 8.817 3.662 13.09 5.632-8.721 1.336-17.398 3.055-26.006 5.155-.466-.264-.933-.527-1.401-.789 7.859-1.95 15.777-3.582 23.734-4.896-3.248-1.459-6.548-2.867-9.897-4.22-7.021-8.802-14.516-17.378-22.472-25.692 2.134-3.469 4.346-6.918 6.636-10.346 3.604-5.333 7.975-8.679 12.878-9.966.226.249.452.499.678.749z"/><path d="m404.098 92.668c-3.733 1.602-6.092 3.116-7.134 4.466-1.579 2.096-2.292 5.229-2.183 9.384.022.882.045 1.765.068 2.648.309 11.964.618 23.929.926 35.893-2.363.061-4.726.149-7.087.265-7.204-12.106-15.201-23.961-23.976-35.486.834 7.329 1.669 14.658 2.503 21.987.055.609.109 1.218.164 1.827.396 1.924.789 3.848 1.178 5.773.875 2.637 2.377 4.49 4.494 5.589.121.083.243.167.364.25-3.971-.859-6.39-4.593-7.192-11.314-.135-1.27-.27-2.54-.404-3.81-.868-7.38-1.736-14.76-2.604-22.141-1.014-1.317-2.038-2.629-3.073-3.938.971 7.764 1.943 15.528 2.914 23.293.927 7.387 2.053 12.16 3.345 14.33 1.297 2.172 3.86 3.558 7.673 4.251 1.336 1.14 2.657 2.289 3.964 3.446-7.478.634-14.938 1.544-22.365 2.733-.277-.327-.555-.654-.833-.98 6.888-1.118 13.804-1.997 20.738-2.639-.789-.677-1.582-1.352-2.381-2.022-6.493.647-12.971 1.502-19.422 2.564 3.183-1.734 5.216-3.642 6.062-5.794.843-2.149.953-5.646.293-10.492-1.468-10.769-2.937-21.537-4.405-32.305-2.338-1.203-4.701-2.383-7.089-3.539 8.207-1.271 16.447-2.257 24.706-2.957-2.208 1.482-4.391 2.985-6.546 4.508 9.134 11.941 17.444 24.229 24.914 36.779-.062-1.629-.124-3.257-.185-4.886-6.496-10.739-13.609-21.282-21.329-31.576 2.133-1.499 4.292-2.978 6.477-4.437.33.234.658.468.986.704-1.935 1.285-3.849 2.586-5.742 3.902 7.024 9.543 13.536 19.293 19.525 29.208-.24-6.34-.48-12.68-.72-19.019-.027-.72-.055-1.439-.082-2.158-.178-4.724-.751-7.864-1.739-9.414-.986-1.548-3.332-2.984-7.083-4.227 7.419-.452 14.849-.674 22.28-.666zm1.701 3.022c-.295.406-.588.812-.881 1.219-2.493.481-4.173 1.402-5.041 2.729-.87 1.329-1.273 3.557-1.227 6.68.205 14.004.409 28.009.614 42.013-2.974.043-5.948.131-8.92.261-.196-.358-.392-.717-.589-1.075 2.789-.127 5.578-.217 8.369-.268-.247-13.501-.494-27.002-.741-40.503-.072-3.83.459-6.511 1.616-8.034 1.152-1.524 3.419-2.552 6.8-3.022z"/><path d="m464.607 97.861c-3.226 1.417-6.41 2.878-9.551 4.38-1.273 8.683-2.547 17.366-3.821 26.049-.702 4.785-1.376 8.201-2.008 10.25-.634 2.049-1.528 3.677-2.672 4.89-2.91 3.114-7.736 4.203-14.626 3.561-7.28-.667-12.263-2.635-15.073-6.241-2.233-2.839-3.278-8.125-3.045-15.894.278-9.016.557-18.032.835-27.048-2.143-1.724-4.317-3.429-6.522-5.114 7.724.095 15.446.439 23.153 1.031-2.359 1.631-4.687 3.285-6.98 4.961-.517 8.87-1.033 17.739-1.55 26.608-.092 2.09-.184 4.181-.277 6.271-.234 4.043.493 6.959 2.14 8.771 1.649 1.814 4.522 2.865 8.655 3.259 4.553.438 7.822-.453 9.883-2.796 1.651-1.899 2.954-6.246 3.866-13.059 1.222-8.705 2.448-17.408 3.68-26.111-2.236-2.259-4.517-4.498-6.841-6.714 6.938.78 13.86 1.762 20.754 2.946zm1.169 3.017c-2.45 1.126-4.875 2.278-7.273 3.454-1.313 8.333-2.625 16.667-3.938 25-1.293 8.186-2.823 13.416-4.541 15.712-3.524 4.643-9.078 6.392-16.896 5.623-6.755-.656-11.72-2.604-15.043-6.109.109.06.219.119.329.179.477.295.953.591 1.427.888 3.334 2.136 7.616 3.393 12.939 3.903 7.601.737 12.914-.871 16.143-5.183 1.717-2.328 3.187-7.295 4.361-14.922 1.319-8.594 2.64-17.187 3.959-25.781 2.622-1.274 5.275-2.519 7.958-3.733.193.322.384.646.575.969zm-32.624-4.794c-1.7 1.209-3.384 2.43-5.05 3.663-.697 10.069-1.394 20.139-2.091 30.208-.079.934-.158 1.869-.237 2.803.332 1.752.657 3.505.975 5.258.582 1.079 1.73 2.416 3.416 4.032.018.124.035.249.054.373-2.292-1.122-3.841-2.58-4.635-4.406-.793-1.825-1.08-4.579-.841-8.267.663-10.167 1.326-20.334 1.989-30.501 1.914-1.373 3.85-2.73 5.808-4.071.205.302.409.605.612.908z"/><path d="m522.569 112.879c-.435.337-.726.567-.873.688-1.599 1.169-3.185 2.349-4.758 3.538-1.639 1.282-3.324 3.012-5.049 5.191-.052.055-.103.109-.154.164-.122-.14-.244-.28-.367-.42.009-.183.018-.366.026-.548.075-3.232-.545-5.688-1.853-7.351-1.309-1.661-3.699-3.026-7.158-4.025-1.415-.408-2.848-.754-4.295-1.041-.188-.052-.377-.104-.566-.155-3.881 14.206-7.762 28.411-11.643 42.616 1.238 1.874 2.451 3.754 3.638 5.641-6.198-1.802-12.439-3.405-18.714-4.809 2.27-1.121 4.565-2.217 6.888-3.286 3.204-13.132 6.408-26.263 9.612-39.395-1.111-.285-2.224-.565-3.338-.839-3.242-.757-5.675-.716-7.269.069-1.596.786-2.793 2.518-3.596 5.182-.402-.083-.805-.165-1.207-.246.967-3.048 2.354-5.028 4.174-5.923 1.814-.895 4.54-.955 8.139-.115.943.235 1.887.473 2.828.715.174.042.347.084.52.126.158-.646.316-1.293.474-1.94-1.577-.553-3.099-.996-4.56-1.332-4.1-.941-7.22-.856-9.309.174-2.093 1.031-3.547 3.208-4.379 6.505-.187-.036-.372-.072-.559-.108-.626-3.965-1.94-8.502-4.054-13.585-.074-.15-.147-.301-.222-.452 19.488 3.37 38.763 8.355 57.624 14.961zm-12.334 5.285c-1.956-2.049-4.555-3.563-7.762-4.499-.716-.209-1.476-.385-2.276-.529-3.673 13.149-7.354 26.297-11.042 39.442 1.489 3.08 2.919 6.17 4.291 9.267-6.83-2.11-13.716-3.974-20.645-5.591-.229-.43-.458-.86-.688-1.29 6.521 1.5 13.006 3.218 19.441 5.154-1.202-2.532-2.444-5.058-3.728-7.577 3.825-13.629 7.649-27.258 11.474-40.886.85.224 1.697.451 2.545.682 3.03.875 5.109 1.735 6.243 2.526 1.135.792 1.85 1.896 2.147 3.301zm14.422-1.819c-2.952 1.479-6.51 4.437-10.573 8.915-.104.108-.208.217-.312.325-.249-.356-.499-.712-.75-1.068.084-.101.168-.202.252-.303 4.02-4.587 7.524-7.516 10.41-8.824.104-.049.21-.098.314-.147.221.367.44.735.659 1.102z"/></g></svg>