<svg enable-background="new 0 0 843.545 843.544" height="843.544" viewBox="0 0 843.545 843.544" width="843.545" xmlns="http://www.w3.org/2000/svg"><path d="m818.077 414.004c0-214.24-174.296-388.537-388.536-388.537-155.244 0-289.492 91.534-351.666 223.455-33.273 56.215-52.408 121.744-52.408 191.669 0 208.146 169.34 377.484 377.489 377.484 69.922 0 135.452-19.133 191.67-52.408 131.917-62.175 223.451-196.423 223.451-351.663z" fill="#4b4a4b" stroke="#382d15" stroke-miterlimit="10" stroke-width="50.9352"/><path d="m809.34 414.004c0 209.755-170.043 379.8-379.799 379.8-209.752 0-379.796-170.045-379.796-379.8 0-209.756 170.043-379.798 379.796-379.798 209.756 0 379.799 170.043 379.799 379.798z" fill="#7f7c74" stroke="#4b4a4b" stroke-miterlimit="10" stroke-width="17.4754"/><path d="m785.546 430.393c0 203.793-165.207 368.998-368.994 368.998-203.794 0-368.998-165.205-368.998-368.998 0-203.787 165.204-368.995 368.998-368.995 203.787 0 368.994 165.208 368.994 368.995z" fill="#4b4a4b"/><path d="m771.951 440.592c0 203.789-165.209 368.996-368.995 368.996-203.795 0-368.999-165.207-368.999-368.996 0-203.793 165.204-368.997 368.999-368.997 203.786 0 368.995 165.204 368.995 368.997z" fill="#7f7c74" stroke="#4b4a4b" stroke-miterlimit="10" stroke-width="16.9784"/><path d="m726.378 618.336c29.035-52.725 45.573-113.303 45.573-177.744 0-203.793-165.209-368.997-368.995-368.997-40.65 0-79.753 6.589-116.327 18.732z" fill="#fff" opacity=".3"/><path d="m79.53 262.851c-29.035 52.722-45.573 113.298-45.573 177.741 0 203.789 165.204 368.996 368.999 368.996 40.644 0 79.749-6.594 116.321-18.729z" fill="#4b4a4b" opacity=".3"/><g stroke-miterlimit="10"><path d="m757.238 440.021c0 195.355-158.364 353.719-353.718 353.719-195.352 0-353.714-158.363-353.714-353.719 0-195.35 158.362-353.713 353.714-353.713 195.354 0 353.718 158.364 353.718 353.713z" fill="none" opacity=".3" stroke="#fff" stroke-width="16.2753"/><path d="m675.787 441.268c0 151.057-122.457 273.515-273.513 273.515s-273.511-122.458-273.511-273.515c0-151.055 122.455-273.51 273.511-273.51s273.513 122.455 273.513 273.51z" fill="#7f7c74" stroke="#4b4a4b" stroke-width="18.1393"/><circle cx="404.616" cy="443.611" fill="#7f7c74" opacity=".4" r="260.635" stroke="#4b4a4b" stroke-width="17.2853"/><path d="m694.123 442.38c0 161.797-131.164 292.961-292.958 292.961-161.797 0-292.96-131.164-292.96-292.961 0-161.795 131.163-292.957 292.96-292.957 161.794 0 292.958 131.162 292.958 292.957z" fill="none" opacity=".3" stroke="#fff" stroke-width="18.6243"/></g><path d="m428.58 685.551c-137.704 0-249.345-111.635-249.345-249.345s111.641-249.345 249.345-249.345c56.955 0 109.412 19.138 151.396 51.271-46.826-38.829-106.946-62.183-172.533-62.183-149.387 0-270.488 121.105-270.488 270.489 0 149.38 121.101 270.479 270.488 270.479 149.381 0 270.482-121.1 270.482-270.479 0-1.716-.096-3.411-.128-5.115-2.733 135.334-113.222 244.228-249.217 244.228z" fill="#4b4a4b" opacity=".6"/><path d="m418.646 183.359 243.754 298.76c1.858-12.568 2.852-25.423 2.852-38.508-.001-139.235-109.188-252.96-246.606-260.252z" fill="#fff" opacity=".2"/><path d="m390.604 711.626-243.755-298.761c-1.86 12.572-2.852 25.423-2.852 38.513 0 139.235 109.184 252.955 246.607 260.248z" fill="#4b4a4b" opacity=".3"/><path d="m450.659 462.7c-2.645-4.027-8.861-8.022-13.487-4.501-1.164.886-.977 2.403.387 2.956 2.914 1.182 5.964 1.813 7.759 4.668 2.12 3.376 7.534.213 5.341-3.123z" fill="#fff" opacity=".3"/><circle cx="137.284" cy="260.392" fill="#7f7c74" r="11.999" stroke="#4b4a4b" stroke-miterlimit="10" stroke-width="6"/><path d="m133.028 252.812c.085 4.535 3.781 8.187 8.337 8.187 1.043 0 2.038-.2 2.959-.55-.085-4.535-3.781-8.187-8.336-8.187-1.044 0-2.039.2-2.96.55z" fill="#fff" opacity=".5"/><circle cx="673.284" cy="260.392" fill="#7f7c74" r="11.999" stroke="#4b4a4b" stroke-miterlimit="10" stroke-width="6"/><path d="m669.028 252.812c.085 4.535 3.781 8.187 8.337 8.187 1.043 0 2.038-.2 2.959-.55-.085-4.535-3.781-8.187-8.336-8.187-1.045 0-2.039.2-2.96.55z" fill="#fff" opacity=".5"/><circle cx="137.284" cy="641.655" fill="#7f7c74" r="11.999" stroke="#4b4a4b" stroke-miterlimit="10" stroke-width="6"/><path d="m133.028 634.075c.085 4.535 3.781 8.187 8.337 8.187 1.043 0 2.038-.199 2.959-.551-.085-4.534-3.781-8.186-8.336-8.186-1.044 0-2.039.2-2.96.55z" fill="#fff" opacity=".5"/><circle cx="673.284" cy="641.655" fill="#7f7c74" r="11.999" stroke="#4b4a4b" stroke-miterlimit="10" stroke-width="6"/><path d="m669.028 634.075c.085 4.535 3.781 8.187 8.337 8.187 1.043 0 2.038-.199 2.959-.551-.085-4.534-3.781-8.186-8.336-8.186-1.045 0-2.039.2-2.96.55z" fill="#fff" opacity=".5"/><circle cx="724.948" cy="452.205" fill="#7f7c74" r="12" stroke="#4b4a4b" stroke-miterlimit="10" stroke-width="6"/><path d="m720.691 444.625c.086 4.535 3.781 8.188 8.338 8.188 1.043 0 2.037-.2 2.959-.551-.086-4.535-3.781-8.187-8.336-8.187-1.045 0-2.039.2-2.961.55z" fill="#fff" opacity=".5"/><circle cx="76.948" cy="452.205" fill="#7f7c74" r="11.999" stroke="#4b4a4b" stroke-miterlimit="10" stroke-width="6"/><path d="m72.692 444.625c.085 4.535 3.781 8.188 8.337 8.188 1.043 0 2.038-.2 2.959-.551-.085-4.535-3.781-8.187-8.336-8.187-1.045 0-2.039.2-2.96.55z" fill="#fff" opacity=".5"/><circle cx="397.907" cy="767.654" fill="#7f7c74" r="11.999" stroke="#4b4a4b" stroke-miterlimit="10" stroke-width="6"/><path d="m393.651 760.074c.085 4.535 3.781 8.188 8.337 8.188 1.043 0 2.038-.2 2.959-.551-.085-4.535-3.781-8.187-8.336-8.187-1.044 0-2.039.201-2.96.55z" fill="#fff" opacity=".5"/><g fill="#7f7c74" stroke="#4b4a4b" stroke-miterlimit="10" stroke-width="13"><path d="m248.783 125.868c-1.096 2.983-1.671 5.796-1.756 8.424-.158 5.183-.277 8.415-.519 9.731-.049.134-.098.268-.147.401-.323-.174-.569-.311-.738-.41-2.464-1.533-4.332-2.488-5.578-2.894-1.247-.403-2.823-.538-4.732-.386-4.826.383-9.537 2.202-13.974 5.454-4.093 3.001-6.926 6.297-8.481 9.741-1.556 3.452-1.453 6.194.204 8.209 3.125 3.788 9.637 2.531 19.748-2.715 3.389-1.743 6.792-3.407 10.208-4.995 14.665-6.755 24.188-5.396 28.295 2 2.335 4.158 2.09 8.848-.424 14.125-2.52 5.292-6.64 9.797-12.481 13.868-3.661 2.554-7.994 5.093-13.028 7.757-2.088 1.106-4.17 2.248-6.247 3.423-2.508 1.441-4.463 2.799-5.863 4.025-1.858 1.626-3.387 3.763-4.547 6.381-.256-.039-.513-.078-.77-.116-.01-7.4-.652-13.679-2.232-18.792.338-.195.676-.389 1.014-.582 3.637 2.892 7.917 3.882 12.82 3.173 4.913-.709 9.999-3.063 15.502-6.96 4.34-3.068 7.348-6.112 9.033-9.325 1.683-3.205 1.786-6.096.195-8.699-1.829-2.99-5.282-4.312-10.429-3.717-3.672.462-10.291 2.937-19.615 8.222-7.179 4.092-12.926 6.608-17.437 7.183-4.501.58-8.257-.693-11.216-4.01-3.049-3.414-3.56-7.994-1.258-13.703 2.298-5.69 6.969-11.353 13.993-16.546 4.512-3.333 10.21-6.605 17.055-9.591 3.208-1.386 5.513-2.473 6.914-3.335 1.959-1.204 3.85-2.917 5.71-5.142.261-.065.52-.132.781-.199zm13.905 24.05c6.553-.327 10.991 1.982 13.445 6.55 2.629 4.894 2.198 10.409-.856 16.628-3.059 6.238-7.852 11.459-14.567 16.127-3.422 2.381-6.651 4.36-9.738 5.912-2.825 1.443-5.641 2.95-8.444 4.521-1.969 1.092-3.926 2.473-5.852 4.144-1.715 1.489-3.062 3.138-4.029 4.92-.46-.15-.921-.299-1.382-.447 1.068-1.922 2.427-3.604 4.058-5.027 1.812-1.58 4.068-3.159 6.764-4.692 2.705-1.522 5.421-2.984 8.147-4.389 3.255-1.679 6.486-3.649 9.733-5.91 6.364-4.426 10.895-9.427 13.767-15.416 2.868-5.973 3.242-11.235.721-15.856-2.126-3.893-5.957-6.262-11.637-6.838-.043-.076-.087-.151-.13-.227zm-45.43 30.442c.752-.285 1.503-.566 2.255-.843 2.226.366 6.36-1.319 12.51-4.682 3.104-1.68 6.221-3.291 9.349-4.832 6.379-3.127 10.794-4.773 13.175-5.307 2.383-.526 4.443-.286 6.169.688-.091.125-.183.251-.274.377-2.374-.292-4.681-.125-6.899.501-2.217.632-6.221 2.247-11.951 5.139-8.288 4.23-13.941 7.277-17.104 8.511-3.156 1.248-5.563 1.427-7.23.448zm15.268 5.597c4.514 3.069 9.968 3.37 16.432 1.265.069.093.138.187.208.28-6.89 3.186-12.771 3.228-17.819-.295.392-.418.785-.835 1.179-1.25zm8.11-42.78c-6.065-.109-11.607 1.614-16.384 5.09-2.882 2.097-4.865 4.403-5.938 6.844-1.075 2.445-.975 4.445.247 5.994 1.332 1.693 4.516 1.956 9.504 1.024.188-.05.375-.101.562-.15-.02.16-.041.321-.061.481-5.756 2.201-9.651 2.195-11.688-.352-1.412-1.767-1.55-4.027-.348-6.771 1.202-2.739 3.518-5.409 6.942-7.903 3.271-2.382 6.478-3.966 9.557-4.773 3.081-.807 5.724-.754 7.915.109-.103.135-.205.271-.308.407zm12.832-17.874c-.077.292-.153.585-.229.877-.68 2.682-1.121 5.149-1.346 7.398-.611 5.302-.866 8.253-.961 8.885-.042.145-.085.29-.128.435-.535.156-1.069.313-1.604.473.008-.158.016-.317.024-.475.108-2.315.429-5.437 1.042-9.372.373-2.444.774-4.893 1.206-7.344.044-.159.088-.317.132-.476.622-.135 1.243-.269 1.864-.401z"/><path d="m260.687 118.772c9.829-5.132 19.869-9.718 30.075-13.758-2.158 2.977-4.249 5.977-6.273 8.997 5.976 13.878 11.951 27.756 17.926 41.634 2.865.442 5.702.934 8.509 1.472-8.277 3.293-16.421 7.022-24.396 11.186 1.607-2.722 3.274-5.428 5.001-8.118-6.591-13.629-13.182-27.258-19.772-40.887-3.658-.246-7.349-.423-11.07-.526zm33.878-12.578c-1.659 2.208-3.28 4.43-4.864 6.665 5.621 13.681 11.241 27.361 16.862 41.042 4.063 1.283 8.051 2.66 11.962 4.128-9.184 3.38-18.214 7.296-27.045 11.746-.601-.136-1.203-.27-1.807-.401 8.272-4.226 16.723-7.983 25.311-11.271-3.206-1.12-6.461-2.179-9.765-3.174-5.811-13.901-11.621-27.801-17.431-41.702 1.743-2.489 3.532-4.963 5.367-7.421.472.128.942.257 1.41.388z"/><path d="m371.103 86.137c-.216.303-.431.606-.646.91-3.509 5.013-6.296 10.015-8.433 14.955-.143.359-.284.719-.425 1.079-.294-.057-.588-.113-.883-.169-1.681-4.197-4.581-7.281-8.764-9.145-4.177-1.861-8.989-2.228-14.278-1.022-5.645 1.289-9.951 4.083-12.769 8.206-3.579 5.154-3.821 12.352-1.032 21.509 2.399 7.892 6.215 13.465 11.19 16.925 4.992 3.463 10.583 4.402 17.099 2.989 5.216-1.126 9.136-3.206 11.875-6.415 2.732-3.204 4.107-7.319 4.021-12.411-.017-1.229.579-1.932 1.785-2.098 1.569-.215 2.475.623 2.715 2.493.362 2.793-.141 5.794-1.42 9.018-2.729 6.843-9.311 10.968-19.975 13.333-9.538 2.138-17.664 1.772-24.972-1.463-7.279-3.227-12.656-8.865-15.707-17.373-2.808-7.828-1.97-15.606 3.156-23.161 5.109-7.531 13.213-12.81 23.832-15.213 5.032-1.138 10.967-1.535 17.671-1.052 3.516.26 6.359.258 8.563-.055 2.383-.339 4.464-1.032 6.263-2.099.38.085.757.172 1.134.259zm6.569 36.932c.146 7.23-1.929 12.951-5.986 17.311-4.073 4.372-9.986 7.2-17.962 8.918-6.06 1.31-11.988 1.286-18.063-.081-.032-.111-.064-.223-.097-.334 5.346 1.002 11.206.72 17.801-.709 7.212-1.559 12.784-4.343 16.958-8.677 2.034-2.112 3.486-4.333 4.325-6.69.837-2.357 1.25-5.386 1.219-9.093 0-.336.001-.672.003-1.009.602.119 1.203.24 1.802.364zm-24.815-26.591c-4.367-1.36-8.392-1.626-11.955-.843-11.477 2.564-15.146 11.203-11.197 24.949 1.765 6.29 4.432 11.181 7.847 14.762 3.423 3.583 7.27 5.496 11.634 5.814.032.142.064.283.096.424-4.565.322-8.709-1.328-12.602-5.014-3.884-3.686-6.887-8.831-8.822-15.556-4.234-14.351-.152-23.53 12.477-26.371 4.238-.937 8.423-.506 12.419 1.276.036.188.07.373.103.559zm23.414-8.808c-.219.299-.438.599-.655.899-4.323 5.881-7.454 11.263-9.593 16.052-.602-.105-1.204-.208-1.808-.309.181-.394.363-.787.546-1.181 1.698-3.327 3.28-6.086 4.699-8.285 1.499-2.267 3.033-4.523 4.604-6.768.196-.284.393-.568.59-.852.54.147 1.079.295 1.617.444z"/><path d="m381.105 83.761c10.652-.916 21.34-1.299 32.023-1.15-3.2 1.871-6.343 3.79-9.428 5.753.138 8.764.276 17.527.415 26.291 1.115-.932 2.241-1.857 3.378-2.776-.031-7.734-.062-15.468-.092-23.203 2.501-1.591 5.041-3.153 7.618-4.684.335.326.668.652 1.001.979-2.368 1.397-4.704 2.82-7.008 4.268-.008 7.096-.017 14.192-.024 21.288 6.464-5.361 13.285-10.509 20.449-15.409 3.099-2.117 4.771-4.066 4.922-5.92.091-1.098-.674-2.22-2.318-3.345s-3.693-1.923-6.135-2.375c.008-.145.016-.29.023-.435 12.017.646 24.003 1.967 35.898 3.962-.023.143-.048.286-.072.429-7.999-.108-17.055 2.829-26.406 9.011-3.246 2.122-6.424 4.294-9.532 6.516 7.293 10.837 13.751 21.937 19.36 33.204 2.983 2.003 5.903 4.057 8.76 6.157-9.662-1.674-19.399-2.808-29.163-3.402 2.552-1.27 5.141-2.502 7.768-3.696-4.092-7.589-8.573-15.087-13.441-22.464-3.475 2.765-6.85 5.592-10.125 8.476-.005 4.15-.009 8.3-.014 12.45 3.123 2.775 6.149 5.604 9.078 8.483-9.53-.342-19.075-.163-28.589.536-.53-.354-1.062-.706-1.595-1.057 8.939-.708 17.907-.959 26.867-.753-2.319-2.274-4.699-4.518-7.14-6.729-.018-4.498-.036-8.996-.054-13.494 3.486-3.119 7.089-6.174 10.805-9.158-.436-.653-.874-1.306-1.315-1.957-4.429 3.445-8.702 6.991-12.816 10.625.071 4.513.142 9.025.213 13.537 2.346 1.545 4.65 3.121 6.914 4.725-8.629-.087-17.261.246-25.863 1 2.424-1.917 4.9-3.8 7.428-5.648-.89-15.167-1.779-30.333-2.669-45.5-2.996-1.555-6.036-3.067-9.121-4.535zm83.404 7.731c-6.641-.893-13.663.622-20.639 4.587-4.153 2.358-8.207 4.801-12.16 7.321 6.738 10.937 12.676 22.098 17.803 33.394 4.955 3.563 9.724 7.263 14.301 11.086-11.605-2.504-23.348-4.208-35.141-5.112-.489-.431-.98-.86-1.475-1.288 10.788.763 21.538 2.191 32.183 4.285-3.508-2.834-7.124-5.598-10.847-8.283-5.348-11.586-11.558-23.023-18.619-34.215 4.189-2.759 8.495-5.43 12.915-8.007 6.932-3.993 14.103-5.593 21.104-4.799.192.344.384.687.575 1.031z"/><path d="m475.057 89.513c10.721 2.265 21.348 5.085 31.834 8.46-3.704.897-7.362 1.86-10.974 2.888-4.313 14.903-8.627 29.807-12.94 44.71.147.042.295.085.443.128.652.235 1.305.472 1.955.712.166.049.332.099.498.149 4.454-14.755 8.908-29.511 13.363-44.267 2.79-.813 5.608-1.586 8.455-2.321.206.403.41.806.614 1.209-2.559.669-5.093 1.37-7.604 2.103-4.483 14.565-8.966 29.13-13.448 43.695 1.621.619 3.179 1.176 4.68 1.667 5.813 1.906 10.495 2.57 14.211 1.809 3.706-.761 6.987-3.056 9.844-6.964.493 8.783 1.717 15.233 3.943 19.467-18.191-8.454-37.146-14.722-56.472-18.805 2.896-1.064 5.831-2.081 8.808-3.046 3.581-14.707 7.162-29.415 10.743-44.122-2.589-2.524-5.24-5.016-7.953-7.472zm50.13 75.571c-1.354.79-2.699 1.589-4.034 2.398-17.867-8.558-36.509-14.96-55.534-19.207-.37-.484-.742-.967-1.116-1.45 19.386 4.218 38.386 10.66 56.59 19.325.893-.588 1.789-1.172 2.691-1.752-2.109-5.374-3.467-10.772-3.974-16.253-.01-.179-.021-.357-.03-.536.522.418 1.043.837 1.563 1.258.028.283.056.565.084.848.709 5.021 1.904 9.936 3.536 14.773.074.2.149.398.224.596z"/><path d="m612.912 156.288c-.473-.035-.946-.069-1.419-.102-6.096-.327-11.67.608-16.712 2.667.039-.811.063-1.413.072-1.807.086-4.312-.806-7.777-2.614-10.332-1.809-2.546-5.86-6.069-12.271-10.215-2.949-1.904-6.554-4.077-10.834-6.437-3.39 5.752-6.779 11.504-10.17 17.256 1.201.709 2.398 1.427 3.591 2.154 3.071-5.046 6.143-10.093 9.214-15.139 3.106 1.657 6.007 3.375 8.692 5.134 4.943 3.241 8.297 6.094 10.116 8.359 1.82 2.268 2.927 4.982 3.3 8.098-.343-.621-.581-1.071-.717-1.354-1.893-3.729-3.479-6.211-4.644-7.461-1.168-1.249-3.774-3.301-7.875-6.01-1.24-.816-3.479-2.219-6.753-4.126-.419-.245-.839-.488-1.259-.729-2.893 4.695-5.786 9.391-8.68 14.086 3.421 2.112 6.808 4.3 10.159 6.563 3.784-.543 7.613-1.007 11.482-1.39-3.644 5.084-7.288 10.168-10.932 15.252-.814-3.57-1.704-7.145-2.668-10.721-4.908-3.316-9.895-6.466-14.951-9.451-4.135 7.015-8.269 14.03-12.403 21.044 1.087.642 2.17 1.291 3.249 1.949 3.878-6.373 7.757-12.746 11.635-19.119 3.965 2.417 7.885 4.938 11.755 7.563.252.627.502 1.254.75 1.882-3.861-2.651-7.773-5.199-11.73-7.642-3.716 6.03-7.432 12.06-11.146 18.09 6.857 4.242 11.824 7.21 15.126 8.516 3.297 1.311 6.463 1.61 9.556.856 1.663-.397 3.336-.778 5.018-1.145.206-.061.599-.16 1.182-.294-1.104 3.189-1.642 6.017-1.614 8.497.024 2.48.629 5.845 1.689 10.104-17.086-14.571-35.587-26.618-55.014-36.139 3.375-.221 6.783-.371 10.222-.447 3.041-5.715 6.082-11.43 9.122-17.145-3.274-1.414-6.481-2.193-9.571-2.35-.129-.403-.259-.806-.39-1.208 2.857-.028 6.377.796 10.493 2.559.32-.602.641-1.205.961-1.807-.615-.393-1.057-.658-1.32-.797-3.862-2.031-7.923-2.824-12.051-2.372 3.726-3.365 8.861-3.516 15.15-.175 2.911-5.472 5.822-10.943 8.733-16.415-2.271-3.183-4.616-6.338-7.034-9.462 22.353 10.956 43.691 24.676 63.505 41.162zm-27.812 49.316c-1.65.273-3.292.562-4.925.867-16.229-14.238-33.807-26.118-52.284-35.64-.091-.488-.184-.976-.277-1.463 18.639 9.521 36.373 21.424 52.753 35.709 1.108-.246 2.222-.485 3.338-.718-1.775-6.724-2.38-12.532-1.543-17.494.409.555.817 1.11 1.223 1.667-.581 4.331-.014 9.619 1.459 15.907.086.389.171.777.256 1.165zm3.429-46.176c-3.816 5.155-7.634 10.311-11.451 15.466-.313-.467-.627-.934-.942-1.399 3.788-5.177 7.576-10.354 11.364-15.53.345.486.688.974 1.029 1.463zm25.076 1.426c-.213-.009-.425-.019-.638-.027-7.529-.138-12.961.671-16.424 2.041-.118-.48-.236-.96-.356-1.441 5.183-1.659 10.933-2.349 17.239-1.923.061.449.121.899.179 1.35z"/></g><g fill="#9b9a9a"><path d="m251.364 127.62c-1.016 3-1.515 5.818-1.529 8.441-.019 5.175-.044 8.399-.247 9.716-.045.134-.09.269-.134.403-.326-.167-.574-.298-.745-.393-2.492-1.478-4.376-2.39-5.627-2.767-1.251-.375-2.823-.475-4.719-.279-4.792.493-9.431 2.426-13.751 5.79-3.985 3.105-6.703 6.475-8.137 9.958-1.436 3.49-1.237 6.222.485 8.182 3.249 3.685 9.686 2.233 19.558-3.242 3.311-1.819 6.637-3.556 9.978-5.212 14.35-7.045 23.815-5.823 28.077 1.479 2.423 4.106 2.317 8.779.005 14.063-2.316 5.3-6.221 9.838-11.836 13.986-3.52 2.603-7.702 5.207-12.575 7.964-2.021 1.145-4.036 2.326-6.043 3.543-2.425 1.491-4.305 2.89-5.641 4.142-1.773 1.663-3.199 3.825-4.234 6.454-.256-.031-.513-.063-.769-.093-.333-7.339-1.225-13.558-2.996-18.597.328-.203.656-.405.984-.606 3.726 2.774 8.01 3.644 12.838 2.822 4.837-.822 9.774-3.27 15.067-7.245 4.175-3.131 7.037-6.205 8.593-9.428 1.554-3.213 1.564-6.092-.088-8.656-1.899-2.946-5.353-4.205-10.43-3.516-3.621.531-10.101 3.123-19.172 8.611-6.983 4.249-12.602 6.917-17.069 7.624-4.457.711-8.248-.436-11.322-3.646-3.168-3.303-3.848-7.856-1.751-13.626 2.094-5.751 6.567-11.55 13.41-16.926 4.395-3.451 9.978-6.863 16.711-10 3.155-1.457 5.42-2.591 6.791-3.48 1.917-1.244 3.754-2.991 5.549-5.249.255-.074.512-.146.769-.217zm14.438 23.733c6.48-.435 10.927 1.806 13.474 6.322 2.728 4.839 2.455 10.336-.358 16.561-2.818 6.245-7.355 11.498-13.803 16.249-3.287 2.424-6.396 4.45-9.384 6.053-2.734 1.49-5.456 3.046-8.165 4.669-1.903 1.129-3.782 2.546-5.619 4.253-1.635 1.52-2.898 3.191-3.779 4.984-.462-.136-.925-.271-1.389-.406.975-1.935 2.249-3.64 3.804-5.093 1.728-1.614 3.896-3.236 6.501-4.821 2.614-1.573 5.241-3.084 7.879-4.534 3.15-1.734 6.263-3.751 9.383-6.053 6.113-4.507 10.402-9.539 13.044-15.536 2.637-5.979 2.859-11.222.244-15.791-2.207-3.847-6.055-6.155-11.696-6.635-.045-.074-.09-.148-.136-.222zm-44.071 31.354c.737-.306 1.474-.608 2.211-.906 2.228.301 6.274-1.497 12.259-4.999 3.021-1.75 6.057-3.427 9.106-5.032 6.218-3.255 10.538-4.978 12.877-5.555 2.342-.569 4.388-.366 6.125.573-.086.127-.173.254-.259.381-2.355-.25-4.633-.041-6.809.625-2.174.671-6.086 2.356-11.667 5.363-8.071 4.396-13.573 7.582-16.669 8.897-3.092 1.328-5.478 1.578-7.174.653zm15.384 5.143c4.597 2.935 10.011 3.1 16.322.874.072.091.144.183.216.273-6.691 3.307-12.514 3.496-17.66.126.372-.425.746-.85 1.122-1.273zm6.614-42.792c-6.034.023-11.501 1.877-16.15 5.47-2.805 2.167-4.706 4.522-5.694 6.987-.989 2.469-.822 4.461.448 5.97 1.384 1.65 4.563 1.822 9.493.765.185-.055.369-.11.554-.165-.015.161-.029.321-.044.481-5.649 2.341-9.527 2.448-11.644-.033-1.467-1.721-1.683-3.972-.576-6.743 1.107-2.767 3.329-5.495 6.662-8.073 3.184-2.462 6.33-4.123 9.37-5.001 3.042-.878 5.673-.884 7.877-.071-.099.138-.197.275-.296.413zm12.281-18.092c-.069.293-.138.586-.206.88-.61 2.69-.986 5.16-1.15 7.408-.469 5.301-.638 8.248-.715 8.88-.039.146-.077.291-.115.436-.526.166-1.053.333-1.58.503.004-.158.007-.316.011-.474.042-2.311.274-5.431.781-9.368.306-2.446.643-4.897 1.011-7.352.04-.159.08-.318.12-.478.615-.147 1.229-.292 1.843-.435z"/><path d="m263.036 120.319c9.658-5.289 19.547-10.005 29.615-14.15-2.094 2.997-4.118 6.016-6.07 9.055 6.185 13.786 12.371 27.571 18.556 41.357 2.825.419 5.62.891 8.384 1.412-8.047 3.33-15.951 7.109-23.675 11.339 1.502-2.726 3.069-5.438 4.699-8.133-6.833-13.509-13.665-27.019-20.498-40.528-3.637-.193-7.309-.312-11.011-.352zm33.41-13.01c-1.612 2.223-3.184 4.458-4.715 6.707 5.814 13.6 11.628 27.199 17.442 40.799 4.017 1.251 7.957 2.604 11.815 4.051-8.925 3.408-17.688 7.369-26.234 11.881-.594-.129-1.189-.257-1.786-.382 8.008-4.288 16.207-8.091 24.554-11.41-3.164-1.101-6.38-2.138-9.646-3.107-6.012-13.815-12.023-27.63-18.035-41.444 1.684-2.505 3.418-4.995 5.201-7.469.468.123.937.248 1.404.374z"/><path d="m372.138 87.016c-.214.303-.428.605-.641.908-3.479 5.002-6.229 9.998-8.329 14.933-.14.359-.279.719-.417 1.078-.291-.057-.581-.114-.872-.17-1.67-4.198-4.546-7.285-8.694-9.148-4.142-1.861-8.913-2.223-14.146-1.005-5.586 1.302-9.833 4.112-12.583 8.244-3.496 5.167-3.647 12.359-.779 21.492 2.466 7.871 6.297 13.421 11.221 16.867 4.942 3.449 10.42 4.383 16.783 2.979 5.093-1.12 8.912-3.188 11.58-6.389 2.66-3.195 3.997-7.304 3.901-12.395-.02-1.228.565-1.93 1.75-2.092 1.541-.21 2.432.631 2.67 2.501.359 2.793-.131 5.792-1.377 9.01-2.659 6.832-9.065 10.928-19.464 13.278-9.301 2.125-17.249 1.771-24.469-1.435-7.189-3.197-12.581-8.79-15.73-17.262-2.897-7.795-2.193-15.569 2.794-23.15 4.969-7.556 12.966-12.879 23.481-15.307 4.983-1.149 10.868-1.555 17.513-1.069 3.485.261 6.3.264 8.483-.046 2.36-.334 4.421-1.023 6.203-2.084.375.086.748.174 1.122.262zm6.461 36.949c.141 7.229-1.891 12.939-5.843 17.281-3.969 4.355-9.72 7.16-17.49 8.864-5.904 1.3-11.691 1.273-17.655-.083-.033-.111-.066-.222-.099-.333 5.247.993 10.965.71 17.394-.708 7.028-1.546 12.448-4.311 16.516-8.627 1.981-2.104 3.399-4.317 4.217-6.672.816-2.353 1.22-5.379 1.188-9.085.001-.336.001-.672.003-1.009.59.122 1.18.246 1.769.372zm-24.508-26.638c-4.326-1.361-8.313-1.622-11.837-.833-11.354 2.586-14.904 11.244-10.851 24.958 1.811 6.276 4.494 11.153 7.888 14.725 3.402 3.573 7.19 5.48 11.465 5.801.033.141.066.283.099.424-4.465.319-8.541-1.326-12.405-5-3.855-3.674-6.875-8.803-8.862-15.513-4.349-14.314-.398-23.517 12.1-26.384 4.192-.944 8.34-.517 12.301 1.265.034.186.068.371.102.557zm23.163-8.761c-.217.299-.435.598-.65.897-4.288 5.865-7.378 11.238-9.483 16.021-.594-.106-1.188-.21-1.784-.313.178-.393.357-.786.537-1.179 1.671-3.323 3.233-6.078 4.636-8.272 1.481-2.262 3.001-4.514 4.56-6.753.194-.283.39-.567.585-.85.533.148 1.066.298 1.599.449z"/><path d="m382.051 84.677c10.556-.868 21.15-1.178 31.733-.93-3.188 1.841-6.317 3.733-9.385 5.672.069 8.764.139 17.529.208 26.293 1.104-.923 2.218-1.839 3.345-2.749.035-7.734.07-15.468.105-23.202 2.489-1.57 5.018-3.109 7.586-4.615.328.329.655.659.981.989-2.359 1.374-4.685 2.775-6.978 4.204-.071 7.096-.142 14.191-.212 21.287 6.41-5.306 13.196-10.386 20.342-15.201 3.092-2.08 4.774-4.007 4.951-5.859.105-1.097-.636-2.229-2.248-3.374-1.613-1.145-3.633-1.968-6.047-2.447.01-.145.02-.29.029-.434 11.898.781 23.76 2.271 35.515 4.467-.026.143-.054.285-.08.428-7.929-.244-16.962 2.555-26.296 8.619-3.239 2.08-6.407 4.215-9.502 6.401 7.055 10.917 13.223 22.097 18.491 33.433 2.88 2.042 5.693 4.135 8.438 6.274-9.408-1.813-18.902-3.068-28.431-3.765 2.51-1.242 5.06-2.446 7.647-3.609-3.882-7.635-8.177-15.182-12.882-22.607-3.45 2.73-6.795 5.526-10.035 8.381-.041 4.15-.083 8.3-.124 12.45 3.03 2.802 5.957 5.658 8.779 8.564-9.292-.434-18.604-.33-27.886.311-.516-.357-1.034-.712-1.554-1.066 8.724-.656 17.477-.839 26.218-.55-2.239-2.295-4.542-4.56-6.91-6.791.021-4.498.041-8.997.061-13.495 3.449-3.09 7.02-6.112 10.711-9.059-.421-.658-.846-1.314-1.273-1.97-4.398 3.402-8.632 6.91-12.699 10.511.036 4.513.072 9.026.107 13.539 2.282 1.563 4.521 3.158 6.716 4.783-8.425-.164-16.857.108-25.259.814 2.37-1.903 4.795-3.771 7.275-5.603-.809-15.171-1.618-30.342-2.427-45.514-2.953-1.57-5.958-3.098-9.01-4.58zm82.493 8.631c-6.562-1.008-13.55.396-20.514 4.262-4.145 2.3-8.187 4.69-12.123 7.162 6.492 11.016 12.133 22.253 16.914 33.614 4.776 3.63 9.354 7.398 13.726 11.289-11.274-2.686-22.706-4.545-34.198-5.579-.471-.436-.944-.87-1.42-1.303 10.518.879 20.989 2.446 31.34 4.701-3.357-2.885-6.832-5.699-10.419-8.434-4.993-11.652-10.899-23.169-17.711-34.441 4.171-2.709 8.465-5.326 12.877-7.841 6.921-3.896 14.059-5.384 20.979-4.47.184.346.367.693.549 1.04z"/><path d="m475.044 91.522c10.582 2.47 21.056 5.521 31.37 9.155-3.705.803-7.363 1.678-10.972 2.622-4.691 14.79-9.382 29.579-14.072 44.368.144.045.287.091.431.137.633.247 1.265.497 1.896.749.161.053.322.105.482.159 4.839-14.635 9.677-29.27 14.515-43.905 2.789-.746 5.608-1.45 8.457-2.112.191.408.383.815.572 1.224-2.559.604-5.095 1.242-7.605 1.914-4.866 14.442-9.732 28.884-14.599 43.326 1.57.65 3.08 1.238 4.536 1.759 5.638 2.023 10.21 2.793 13.891 2.123 3.672-.669 6.989-2.873 9.953-6.695.154 8.77 1.095 15.226 3.104 19.502-17.527-8.905-35.906-15.551-54.706-19.938 2.859-1.017 5.762-1.982 8.705-2.894 3.916-14.622 7.833-29.244 11.749-43.866-2.503-2.577-5.072-5.12-7.707-7.628zm47.037 76.584c-1.368.748-2.726 1.507-4.071 2.276-17.184-9-35.229-15.774-53.709-20.323-.349-.489-.699-.978-1.053-1.466 18.841 4.524 37.243 11.345 54.76 20.462.902-.562 1.81-1.118 2.722-1.67-1.842-5.407-2.958-10.822-3.242-16.299-.003-.179-.005-.357-.009-.535.499.431.996.863 1.491 1.297.017.283.033.565.049.847.499 5.024 1.472 9.952 2.867 14.813.065.2.13.399.195.598z"/><path d="m609.563 162.857c-.472-.06-.942-.118-1.413-.175-6.076-.642-11.687.02-16.817 1.835.08-.807.134-1.406.163-1.799.301-4.298-.421-7.799-2.103-10.431-1.682-2.624-5.558-6.327-11.759-10.734-2.854-2.025-6.349-4.342-10.511-6.864-3.622 5.608-7.245 11.216-10.867 16.825 1.16.751 2.315 1.511 3.467 2.282 3.279-4.913 6.559-9.826 9.839-14.739 3.021 1.777 5.833 3.612 8.429 5.481 4.777 3.443 7.987 6.442 9.693 8.785 1.705 2.346 2.678 5.106 2.895 8.232-.311-.636-.526-1.096-.647-1.384-1.703-3.809-3.166-6.357-4.268-7.657-1.104-1.298-3.605-3.463-7.567-6.341-1.197-.867-3.365-2.361-6.539-4.397-.407-.261-.813-.521-1.222-.779-3.089 4.569-6.177 9.138-9.266 13.707 3.299 2.236 6.561 4.551 9.782 6.946 3.788-.384 7.62-.683 11.492-.892-3.878 4.907-7.756 9.815-11.634 14.722-.626-3.588-1.331-7.185-2.114-10.788-4.714-3.504-9.515-6.835-14.396-9.995-4.418 6.839-8.836 13.679-13.254 20.519 1.042.674 2.079 1.357 3.112 2.048 4.142-6.205 8.283-12.41 12.425-18.614 3.82 2.556 7.59 5.22 11.304 7.993.221.635.438 1.27.652 1.905-3.703-2.8-7.462-5.49-11.272-8.073-3.967 5.868-7.934 11.735-11.899 17.603 6.563 4.456 11.318 7.598 14.519 9.025 3.192 1.433 6.313 1.86 9.42 1.243 1.671-.324 3.352-.631 5.041-.921.208-.051.603-.132 1.189-.24-1.269 3.124-1.958 5.911-2.069 8.376-.113 2.465.295 5.835 1.1 10.111-16.1-15.244-33.767-27.878-52.464-37.901 3.33-.125 6.693-.174 10.088-.145 3.257-5.594 6.513-11.189 9.77-16.784-3.182-1.518-6.323-2.396-9.373-2.648-.11-.405-.223-.811-.335-1.216 2.828.06 6.277.992 10.277 2.886.344-.589.687-1.179 1.03-1.769-.593-.413-1.019-.691-1.274-.838-3.741-2.153-7.729-3.072-11.831-2.747 3.819-3.242 8.915-3.232 15.011.312 3.117-5.356 6.235-10.713 9.354-16.069-2.132-3.258-4.341-6.49-6.627-9.692 21.822 11.696 42.502 26.296 61.469 43.796zm-30.418 47.728c-1.654.192-3.301.402-4.938.629-15.247-14.872-31.983-27.31-49.722-37.312-.067-.488-.137-.976-.207-1.464 17.903 10.007 34.802 22.475 50.201 37.402 1.114-.193 2.232-.379 3.354-.557-1.364-6.757-1.637-12.555-.532-17.451.376.57.75 1.141 1.121 1.713-.817 4.28-.553 9.56.537 15.871.062.391.125.78.186 1.169zm5.929-45.785c-4.06 4.966-8.118 9.933-12.178 14.899-.286-.479-.574-.956-.863-1.433 4.029-4.991 8.059-9.981 12.088-14.972.319.501.637 1.003.953 1.506zm24.947 2.653c-.212-.021-.424-.041-.635-.061-7.519-.532-12.978.013-16.5 1.211-.093-.484-.187-.969-.282-1.454 5.253-1.407 11.026-1.811 17.308-1.055.037.454.073.906.109 1.359z"/></g><path d="m353.714 456.179c-1.484-3.414-3.88-7.298-4.827-11.507-1.215-5.4-2.602-9.244-8.987-10.796-2.645-.643-4.923-5.55-6.093-8.957-2.565-7.471-1.134-14.651 3.177-21.373.84-1.309.921-3.743.319-5.243-6.281-15.618-4.933-30.576 3.769-44.818 4.646-7.608 5.44-15.177 1.393-23.193-3.415-6.765-3.71-13.806.791-19.865 1.694-2.28 6.281-3.725 9.183-3.261 1.553.248 2.97 5.289 3.318 8.297.673 5.821-.301 11.922.95 17.565 1.864 8.389 1.565 15.801-2.904 23.472-7.553 12.962-9.252 26.603-1.991 40.899 5.587-2.556 9.832-2.165 10.212 5.493 11.138-.63 18.698 4.654 25.228 12.806 6.368 7.948 19.631 9.415 27.072 2.517 7.114-6.593 13.279-14.37 18.989-22.257 3.394-4.688 3.303-10.183-3.775-14.2-.979 2.165-1.703 4.188-2.763 6.016-2.203 3.8-4.077 8.003-7.099 11.03-1.625 1.629-5.699 2.137-7.987 1.297-1.397-.514-2.091-4.564-2.032-7.003.077-3.125 3.5-6.313-.55-9.359-.159-.118 1.405-2.91 2.477-4.199 2.408-2.901 5.011-5.64 7.244-8.122-5.744 1.815-11.333 3.163-16.516 5.439-1.916.84-2.942 3.82-4.25 5.901-.966 1.534-1.729 3.195-2.583 4.8-1.669-.951-3.853-1.512-4.92-2.92-4.39-5.79-3.474-13.894 1.831-19.102 1.576-1.547 3.218-3.024 4.83-4.533-.446-.78-.895-1.56-1.342-2.341-1.956.946-4.292 1.485-5.798 2.905-6.106 5.769-11.822 11.952-17.996 17.646-1.576 1.455-4.298 1.669-6.494 2.455-.079-2.523-1.209-5.758-.064-7.451 6.383-9.435 12.947-18.805 20.236-27.54 3.109-3.728 3.905-6.877 2.856-11.275-5.298-22.198-10.475-44.424-15.651-66.651-.512-2.197-.724-4.463-1.077-6.699.646-.527 1.289-1.054 1.934-1.582 2.681 4.381 5.362 8.763 8.042 13.144 1.147-.832 2.291-1.664 3.438-2.497-1.284-8.758-2.633-17.506-3.813-26.278-.465-3.455-.491-6.968-.824-10.444-.453-4.75 1.704-8.452 6.243-8.305 3.628.118 9.447 2.002 10.321 4.495 2.484 7.078 2.935 14.872 4.186 22.384-.895.155-1.789.309-2.682.462-.887-4.97-1.743-9.945-2.672-14.906-.425-2.271-.299-5.219-1.682-6.587-1.661-1.641-4.805-2.83-7.039-2.486-1.58.242-4.042 3.521-3.845 5.171 1.675 13.887 3.853 27.714 5.952 41.549.128.85.736 1.734 1.349 2.385 12.783 13.545 25.598 27.06 37.243 39.353 6.303-2.189 11.713-3.788 16.894-5.938 6.809-2.83 13.412-6.155 20.165-9.132 1.563-.689 3.371-.831 5.066-1.223.123 1.713.755 3.585.284 5.118-3.418 11.182-10.469 19.512-20.42 24.605 1.702 2.477 3.146 4.581 4.625 6.729 3.716 1.197 7.977 2.57 12.236 3.94-.122.728-.245 1.456-.368 2.183-1.557 1.085-3.112 2.169-3.503 2.44 2.974 3.281 5.648 6.415 8.541 9.332 1.177 1.187 2.942 1.765 4.242 2.856 4.018 3.374 8.807 6.261 11.706 10.441 4.858 7.006 9.085 14.608 12.48 22.435 3.857 8.889 6.631 18.26 9.581 27.517.596 1.874-.123 4.168-.235 6.27-.61.147-1.221.296-1.831.443-1.704-2.718-3.406-5.433-5.109-8.149-.533.229-1.067.461-1.6.692 3.449 8.092 6.33 16.49 10.464 24.219 9.241 17.277 10.864 34.84 4.058 53.238-.664 1.801-.956 4.064-.52 5.897 3.083 12.979 2.745 25.454-3.719 35.316 4.534 11.506 9.797 21.472 12.246 32.084 2.214 9.602 1.855 19.703 8.125 28.212 1.398 1.899 2.127 5.036 1.745 7.371-1.565 9.59 3.173 15.272 10.527 20.324 3.373 2.317 5.498 6.45 8.189 9.759-.328.638-.655 1.275-.982 1.913-2.446 0-4.891.003-7.337-.002-71.166-.133-142.335.095-213.495-.61-22.562-.223-45.101-2.904-67.646-4.559-1.5-.109-3.614-.6-4.298-1.654-4.199-6.48-6.757-13.479-5.759-22.2 4.94 3.011 9.071 5.531 13.202 8.049.474-.386.95-.769 1.423-1.155-6.456-6.984-10.013-14.802-7.828-24.965 2.024 1.124 3.813 2.114 6.152 3.411-4.349-24.624.625-46.638 16.183-66.752-1.833-1.577-4.033-2.716-5.029-4.52-1.247-2.256-2.263-5.168-1.921-7.59.229-1.62 2.809-3.229 4.665-4.233 4.701-2.544 9.667-4.595 14.37-7.135 2.871-1.552 5.451-3.64 8.642-5.815-8.067-12.145-9.688-27.057-8.144-42.127.933-9.113 3.826-18.127 6.699-26.901 1.875-5.724 6.172-5.767 10.985-1.019-2.302 3.186-4.62 6.397-6.335 8.772 6.386 2.99 11.509 5.064 16.256 7.793 1.554.892 2.75 3.407 2.981 5.317.229 1.897-.962 3.967-1.53 5.96-1.395-1.146-3.203-2.037-4.109-3.489-3.12-5-5.202-5.254-9.553-.008 7.025 2.702 14.118 5.963 12.212 15.076-.68 3.248-3.641 6.021-6.483 10.442-1.5-6.259-2.379-9.931-3.259-13.601-.943.145-1.886.293-2.829.44 0 6.119-.459 12.3.323 18.319.194 1.502 4.327 3.327 6.759 3.506 3.369.243 6.831-1.002 10.272-1.465 1.347-.181 3.406-.549 4.021.15 7.857 8.955 24.185 9.069 25.284 24.799 1.563 0 2.698.072 3.82-.013 10.079-.758 11.351-2.414 9.704-12.572-1.155-7.12-3.429-8.415-10.349-6.342-2.873.86-5.901 1.399-8.891 1.603-1.654.109-3.374-.78-5.064-1.219.583-1.871.643-4.844 1.844-5.415 4.108-1.954 3.941-5.729 2.718-8.155-4.2-8.341 3.202-13.521 4.13-20.744zm53.43 150.981c4.51-3.035 7.972-5.17 11.207-7.606 2.451-1.848 5.313-3.674 6.786-6.211 9.54-16.403 11.026-34.059 5.497-51.873-3.562-11.479-1.46-20.872 5.751-29.904 5.518-6.911 11.154-13.805 15.882-21.249 7.131-11.23 4.353-24.042-6.402-32.207-6.475 4.751-9.326 11.523-9.469 19.222-.099 5.406-1.347 8.69-6.631 7.603-1.737 7.816-3.104 14.875-4.987 21.795-.458 1.686-2.526 3.939-4.01 4.063-1.533.129-3.257-2.02-3.621-2.274-2.864 4.921-6.062 10.143-8.948 15.531-.963 1.801-1.933 4.211-1.523 6.034 4.343 19.34 3.557 38.354-2.861 57.128-.199.58-.026 1.288-.026 1.821 1.457-.615 2.813-1.188 5.321-2.246-.71 7.352-1.315 13.622-1.966 20.373zm-41.739-183.409c-5.862 6.661-3.59 12.361.175 18.127 4.187 6.415 8.079 13.021 12.259 19.438.732 1.122 2.259 1.725 3.418 2.567.557-.37 1.114-.739 1.671-1.11-5.767-12.84-11.532-25.682-17.523-39.022zm23.721 70.573v15.222c3.114.51 5.949.974 8.725 1.429 2.446-8.91.374-13.034-8.725-16.651zm42.65-60.446c-5.113 4.503-10.594 9.327-15.842 13.952 11.63-1.576 14.686-4.329 15.842-13.952z" style="fill-rule:evenodd;clip-rule:evenodd;fill:#7f7c74;stroke:#4b4a4b;stroke-width:17.2853;stroke-miterlimit:10"/><path clip-rule="evenodd" d="m353.714 456.179c-1.484-3.414-3.88-7.298-4.827-11.507-1.215-5.4-2.602-9.244-8.987-10.796-2.645-.643-4.923-5.55-6.093-8.957-2.565-7.471-1.134-14.651 3.177-21.373.84-1.309.921-3.743.319-5.243-6.281-15.618-4.933-30.576 3.769-44.818 4.646-7.608 5.44-15.177 1.393-23.193-3.415-6.765-3.71-13.806.791-19.865 1.694-2.28 6.281-3.725 9.183-3.261 1.553.248 2.97 5.289 3.318 8.297.673 5.821-.301 11.922.95 17.565 1.864 8.389 1.565 15.801-2.904 23.472-7.553 12.962-9.252 26.603-1.991 40.899 5.587-2.556 9.832-2.165 10.212 5.493 11.138-.63 18.698 4.654 25.228 12.806 6.368 7.948 19.631 9.415 27.072 2.517 7.114-6.593 13.279-14.37 18.989-22.257 3.394-4.688 3.303-10.183-3.775-14.2-.979 2.165-1.703 4.188-2.763 6.016-2.203 3.8-4.077 8.003-7.099 11.03-1.625 1.629-5.699 2.137-7.987 1.297-1.397-.514-2.091-4.564-2.032-7.003.077-3.125 3.5-6.313-.55-9.359-.159-.118 1.405-2.91 2.477-4.199 2.408-2.901 5.011-5.64 7.244-8.122-5.744 1.815-11.333 3.163-16.516 5.439-1.916.84-2.942 3.82-4.25 5.901-.966 1.534-1.729 3.195-2.583 4.8-1.669-.951-3.853-1.512-4.92-2.92-4.39-5.79-3.474-13.894 1.831-19.102 1.576-1.547 3.218-3.024 4.83-4.533-.446-.78-.895-1.56-1.342-2.341-1.956.946-4.292 1.485-5.798 2.905-6.106 5.769-11.822 11.952-17.996 17.646-1.576 1.455-4.298 1.669-6.494 2.455-.079-2.523-1.209-5.758-.064-7.451 6.383-9.435 12.947-18.805 20.236-27.54 3.109-3.728 3.905-6.877 2.856-11.275-5.298-22.198-10.475-44.424-15.651-66.651-.512-2.197-.724-4.463-1.077-6.699.646-.527 1.289-1.054 1.934-1.582 2.681 4.381 5.362 8.763 8.042 13.144 1.147-.832 2.291-1.664 3.438-2.497-1.284-8.758-2.633-17.506-3.813-26.278-.465-3.455-.491-6.968-.824-10.444-.453-4.75 1.704-8.452 6.243-8.305 3.628.118 9.447 2.002 10.321 4.495 2.484 7.078 2.935 14.872 4.186 22.384-.895.155-1.789.309-2.682.462-.887-4.97-1.743-9.945-2.672-14.906-.425-2.271-.299-5.219-1.682-6.587-1.661-1.641-4.805-2.83-7.039-2.486-1.58.242-4.042 3.521-3.845 5.171 1.675 13.887 3.853 27.714 5.952 41.549.128.85.736 1.734 1.349 2.385 12.783 13.545 25.598 27.06 37.243 39.353 6.303-2.189 11.713-3.788 16.894-5.938 6.809-2.83 13.412-6.155 20.165-9.132 1.563-.689 3.371-.831 5.066-1.223.123 1.713.755 3.585.284 5.118-3.418 11.182-10.469 19.512-20.42 24.605 1.702 2.477 3.146 4.581 4.625 6.729 3.716 1.197 7.977 2.57 12.236 3.94-.122.728-.245 1.456-.368 2.183-1.557 1.085-3.112 2.169-3.503 2.44 2.974 3.281 5.648 6.415 8.541 9.332 1.177 1.187 2.942 1.765 4.242 2.856 4.018 3.374 8.807 6.261 11.706 10.441 4.858 7.006 9.085 14.608 12.48 22.435 3.857 8.889 6.631 18.26 9.581 27.517.596 1.874-.123 4.168-.235 6.27-.61.147-1.221.296-1.831.443-1.704-2.718-3.406-5.433-5.109-8.149-.533.229-1.067.461-1.6.692 3.449 8.092 6.33 16.49 10.464 24.219 9.241 17.277 10.864 34.84 4.058 53.238-.664 1.801-.956 4.064-.52 5.897 3.083 12.979 2.745 25.454-3.719 35.316 4.534 11.506 9.797 21.472 12.246 32.084 2.214 9.602 1.855 19.703 8.125 28.212 1.398 1.899 2.127 5.036 1.745 7.371-1.565 9.59 3.173 15.272 10.527 20.324 3.373 2.317 5.498 6.45 8.189 9.759-.328.638-.655 1.275-.982 1.913-2.446 0-4.891.003-7.337-.002-71.166-.133-142.335.095-213.495-.61-22.562-.223-45.101-2.904-67.646-4.559-1.5-.109-3.614-.6-4.298-1.654-4.199-6.48-6.757-13.479-5.759-22.2 4.94 3.011 9.071 5.531 13.202 8.049.474-.386.95-.769 1.423-1.155-6.456-6.984-10.013-14.802-7.828-24.965 2.024 1.124 3.813 2.114 6.152 3.411-4.349-24.624.625-46.638 16.183-66.752-1.833-1.577-4.033-2.716-5.029-4.52-1.247-2.256-2.263-5.168-1.921-7.59.229-1.62 2.809-3.229 4.665-4.233 4.701-2.544 9.667-4.595 14.37-7.135 2.871-1.552 5.451-3.64 8.642-5.815-8.067-12.145-9.688-27.057-8.144-42.127.933-9.113 3.826-18.127 6.699-26.901 1.875-5.724 6.172-5.767 10.985-1.019-2.302 3.186-4.62 6.397-6.335 8.772 6.386 2.99 11.509 5.064 16.256 7.793 1.554.892 2.75 3.407 2.981 5.317.229 1.897-.962 3.967-1.53 5.96-1.395-1.146-3.203-2.037-4.109-3.489-3.12-5-5.202-5.254-9.553-.008 7.025 2.702 14.118 5.963 12.212 15.076-.68 3.248-3.641 6.021-6.483 10.442-1.5-6.259-2.379-9.931-3.259-13.601-.943.145-1.886.293-2.829.44 0 6.119-.459 12.3.323 18.319.194 1.502 4.327 3.327 6.759 3.506 3.369.243 6.831-1.002 10.272-1.465 1.347-.181 3.406-.549 4.021.15 7.857 8.955 24.185 9.069 25.284 24.799 1.563 0 2.698.072 3.82-.013 10.079-.758 11.351-2.414 9.704-12.572-1.155-7.12-3.429-8.415-10.349-6.342-2.873.86-5.901 1.399-8.891 1.603-1.654.109-3.374-.78-5.064-1.219.583-1.871.643-4.844 1.844-5.415 4.108-1.954 3.941-5.729 2.718-8.155-4.2-8.341 3.202-13.521 4.13-20.744zm53.43 150.981c4.51-3.035 7.972-5.17 11.207-7.606 2.451-1.848 5.313-3.674 6.786-6.211 9.54-16.403 11.026-34.059 5.497-51.873-3.562-11.479-1.46-20.872 5.751-29.904 5.518-6.911 11.154-13.805 15.882-21.249 7.131-11.23 4.353-24.042-6.402-32.207-6.475 4.751-9.326 11.523-9.469 19.222-.099 5.406-1.347 8.69-6.631 7.603-1.737 7.816-3.104 14.875-4.987 21.795-.458 1.686-2.526 3.939-4.01 4.063-1.533.129-3.257-2.02-3.621-2.274-2.864 4.921-6.062 10.143-8.948 15.531-.963 1.801-1.933 4.211-1.523 6.034 4.343 19.34 3.557 38.354-2.861 57.128-.199.58-.026 1.288-.026 1.821 1.457-.615 2.813-1.188 5.321-2.246-.71 7.352-1.315 13.622-1.966 20.373zm-41.739-183.409c-5.862 6.661-3.59 12.361.175 18.127 4.187 6.415 8.079 13.021 12.259 19.438.732 1.122 2.259 1.725 3.418 2.567.557-.37 1.114-.739 1.671-1.11-5.767-12.84-11.532-25.682-17.523-39.022zm23.721 70.573v15.222c3.114.51 5.949.974 8.725 1.429 2.446-8.91.374-13.034-8.725-16.651zm42.65-60.446c-5.113 4.503-10.594 9.327-15.842 13.952 11.63-1.576 14.686-4.329 15.842-13.952z" fill="#7f7c74" fill-rule="evenodd"/><g fill="#4b4a4b"><path d="m404.385 504.405c-7.603-2.59-16.332 5.584-23.304 7.397-13.365 3.476-27.64 1.289-41.176.261-12.767-.97-25.519-1.644-38.117-4.087-9.096-1.764-21.629-5.684-29.831.424-1.205.897-.545 2.951 1.065 2.527 9.984-2.626 19.481.313 29.276 2.368 9.891 2.074 19.999 2.92 30.03 4.005 19.713 2.132 41.527 7.098 60.213-1.848 2.696-1.291 6.58-3.85 9.717-3.335 3.077.504 4.051 5.367 4.279 7.815.63 6.769-4.039 9.855-9.782 12.087-12.249 4.758-25.867 4.173-37.82 9.773-1.883.882-.96 3.998 1.053 3.887 14.969-.827 31.083-1.502 44.684-8.612 6.081-3.179 9.403-8.197 9.903-14.986.542-7.359-2.939-15.206-10.19-17.676z"/><path d="m323.495 541.492c-3.214-2.021-8.397-1.676-12.067-1.835-5.42-.235-10.758-.991-16.043-2.202-10.467-2.396-18.846-7.856-23.034-17.96-.164-.395-.691-.335-.737.1-1.2 11.467 8.07 18.938 17.792 22.644 5.605 2.138 11.608 3.011 17.549 3.581 4.733.454 12.416 1.545 16.541-1.454 1.006-.733 1.128-2.164-.001-2.874z"/><path d="m467.988 319.837c-3.665.194-6.366 2.607-9.342 4.547-3.785 2.467-8.065 4.001-12.331 5.399-8.621 2.826-16.945 5.328-24.936 9.74-7.378 4.074-14.34 8.866-21.672 13.026-5.816 3.299-11.524 7.112-14.054 13.563-.567 1.447 1.629 2.689 2.614 1.521 4.605-5.463 12.057-8.292 18.372-11.289 7.827-3.715 14.882-8.937 22.671-12.774 7.79-3.838 16.342-5.536 24.428-8.601 5.925-2.246 15.34-6.156 16.008-13.375.085-.919-.864-1.804-1.758-1.757z"/><path d="m447.495 305.491c-5.079-2.19-13.732 2.178-18.441 4.141-7.808 3.253-15.517 6.77-22.883 10.936-10.139 5.734-28.321 16.623-27.341 30.36.03.423.515.658.84.348 4.292-4.09 7.861-8.792 12.322-12.739 5.658-5.006 12.364-8.893 19.027-12.384 6.899-3.615 14.043-6.722 21.28-9.59 4.36-1.728 13.642-4.256 15.793-8.795.35-.738.286-1.896-.597-2.277z"/><path d="m461.738 346.845c-5.173 1.774-9.696 5.666-13.826 9.119-3.979 3.328-7.346 6.993-10.734 10.898-3.806 4.388-10.521 11.965-7.273 18.145-.438.238-.754.679-.727 1.255.199 4.148 2.962 8.1 4.412 11.911 2.135 5.611 3.661 11.586 4.258 17.563.502 5.026.167 9.975-1.121 14.836-5.499 2.605-9.597 7.862-15.122 10.605-6.254 3.105-13.843 3.163-20.656 3.454-6.064.259-13.498-.107-18.501 3.968-4.707 3.834-4.668 10.195-.734 14.603 1.656 1.855 4.154-.162 3.8-2.212-.462-2.669-1.915-5.509.903-7.247 2.388-1.474 5.626-1.723 8.344-1.898 6.183-.398 12.358-.228 18.514-1.1 8.316-1.178 19.525-5.538 24.65-13.25.544.229 1.233.273 2.119.03 3.971-1.093 4.374-7.287 4.812-10.544.739-5.502-.201-11.074-1.337-16.448-1.052-4.976-2.761-9.87-4.81-14.52-1.386-3.144-2.829-7.192-5.477-9.684.249-.211.439-.51.518-.916 1.753-9.106 9.349-16.175 16.162-22.075 3.95-3.42 11.652-10.689 16.34-9.087 1.657.566 3.424-.635 3.893-2.21 1.572-5.281-4.8-6.433-8.407-5.196z"/><path d="m460.632 425.9c-.342-1.1-1.885-1.378-2.484-.325-3.834 6.734-6.023 14.313-9.722 21.166-2.328 4.313-7.807 12.28-5.187 17.291.232.444.776.507 1.187.312 2.689-1.281 3.897-4.582 5.438-6.992 2.019-3.157 3.836-6.473 5.681-9.734 3.69-6.526 7.454-14.115 5.087-21.718z"/><path d="m287.392 597.665c-1.984 2.44-3.191 5.356-4.705 8.094-.813 1.471-1.773 2.87-2.707 4.282-1.189-3.031-3.757-5.857-5.356-8.411-3.107-4.96-6.166-11.508-10.809-15.195-1.223-.971-3.196-.117-2.742 1.597 1.518 5.731 5.472 11.478 8.398 16.611 1.99 3.491 3.998 8.66 7.893 10.313.061 1.049 1.304 1.836 2.236.918 2.424-2.387 4.2-5.548 5.941-8.445 1.688-2.809 3.313-5.818 3.291-9.166-.004-.68-.955-1.195-1.44-.598z"/><path d="m412.611 579.389c-7.537-3.918-17.309 6.774-21.347 11.896-4.136 5.246-8.272 12.286-9.335 19.344-2.77-3.519-3.837-8.642-3.977-13.033-.07-2.208-2.864-3.598-4.492-1.86-2.325 2.479-5.461 6.505-7.308 10.703-1.605-3.91-4.236-7.381-7.635-10.039-1.097-.858-2.662-1.146-3.727 0-3.625 3.898-6 8.609-8.539 13.229-5.3-7.396-8.21-18.8-4.123-26.781 1.051-2.052-.652-3.999-2.8-3.642-17.977 2.991-31.056 17.736-39.05 33.37-1.801-2.779-3.252-5.759-4.619-8.794-1.628-3.616-3.004-7.804-5.907-10.616-.37-.358-1.058-.114-1.041.431.265 8.106 5.296 18.047 9.997 24.472.923 1.261 3.053 1.646 3.892 0 7.229-14.193 17.763-28.435 33.47-33.038-2.747 10.57 1.569 23.43 8.718 31.1 1.183 1.27 3.285.876 4.145-.534 2.729-4.47 4.842-9.452 8.042-13.621 3.333 3.23 5.521 7.637 5.768 12.289.094 1.777 1.622 2.597 2.991 2.465.653.537 1.606.452 2.215-.375 1.799-2.442 2.19-5.924 3.446-8.693.574-1.267 1.26-2.469 2.028-3.616.462 2.177 1.125 4.313 1.943 6.341 1.038 2.575 3.398 7.149 6.696 7.247.498 1.101 2.268.812 2.638-.321 2.385-7.312 4.666-14.201 9.096-20.598 2.491-3.596 5.7-6.669 9.357-9.052 2.917-1.901 6.828-1.878 9.458-3.858 1.419-1.073 1.871-3.444 0-4.416z"/><path d="m408.134 603.371c-12.186 7.115-18.66 24.718-18.362 38.224.082 3.714 5.876 3.718 5.766 0-.211-7.104 1.411-13.834 4.361-20.275 2.68-5.852 6.934-10.769 9.647-16.537.42-.896-.461-1.968-1.412-1.412z"/><path d="m366.399 422.743c-.444-5.715-2.076-14.557.358-20.032.371-.833-.377-1.604-1.219-1.219-5.531 2.537-4.74 12.899-4.75 17.774-.009 4.325.442 8.678 1.018 12.961.361 2.679.852 6.408 3.46 7.936.625.366 1.627.193 1.956-.513 2.169-4.658-.445-12.042-.823-16.907z"/></g><g fill="#fff"><path d="m413.926 305.181c-3.259-2.999-6.578-5.921-9.831-8.926-3.203-2.959-6.615-4.625-10.478-6.499-.468-.227-1.193.289-.802.802 2.462 3.228 4.504 6.725 7.043 9.934 2.756 3.482 5.479 7.01 8.392 10.365 3.385 3.896 9.511-2.146 5.676-5.676z" opacity=".3"/><path d="m461.464 306.418c-8.173 5.806-16.879 8.395-26.486 10.883-7.638 1.979-18.917 4.467-22.627 12.393-.417.892.256 1.884 1.271 1.653 4.227-.966 8.223-2.924 12.404-4.127 4.528-1.303 9.157-2.275 13.759-3.278 9.25-2.017 19.373-4.692 26.139-11.744 2.8-2.92-.947-8.275-4.46-5.78z" opacity=".3"/><path d="m504.426 403.434c-2.134-5.025-5.305-9.667-8.496-14.066-3.133-4.318-6.699-8.283-10.391-12.125-3.141-3.269-7.403-7.592-11.95-8.619-.737-.167-1.453.472-1.239 1.24 1.039 3.737 4.035 6.593 6.401 9.568 3.267 4.105 6.548 8.163 9.639 12.406 2.933 4.024 5.495 8.298 7.729 12.745 2.013 4.005 2.756 9.207 6.581 11.886 1.08.757 2.919.263 3.495-.917 2.024-4.149-.093-8.173-1.769-12.118z" opacity=".3"/><path d="m518.43 560.615c-1.685-7.054-3.69-14.22-6.715-20.825-.672-1.468-1.94-3.308-1.493-4.978.765-2.854 2.029-5.695 3.054-8.463 2.68-7.246 2.346-14.857 2.072-22.414-.292-8.111 1.692-16.18 2.018-24.27.578-14.392-6.509-30.009-16.581-40.2-.856-.865-2.051.047-1.881 1.095 1.107 6.819 4.77 13.108 7.331 19.459 3.085 7.646 3.725 15.029 2.93 23.181-.729 7.47-2.148 14.861-1.93 22.395.245 8.41-.761 15.331-3.646 23.249-1.385 3.801-2.403 6.68-1.029 10.668 2.294 6.659 4.525 13.265 6.235 20.106 3.572 14.293 5.92 29.227 5.933 43.977.005 5.925 9.192 5.925 9.188 0-.014-14.357-2.154-29.028-5.486-42.98z" opacity=".3"/><path d="m355.624 338.62c-.91-3.802-2.475-7.452-3.731-11.146-1.284-3.777-1.656-7.723-2.752-11.53-.339-1.177-1.933-1.101-2.306 0-2.16 6.389 1.275 13.615 3.206 19.666 2.795 8.756 1.534 16.198-3.546 23.761-4.174 6.215-7.836 11.617-8.681 19.253-.703 6.351-2.01 16.62 2.732 21.746 1.011 1.092 3.088.583 3.408-.9.687-3.176-.153-6.323-.402-9.523-.351-4.501-.034-9.098.707-13.542 1.17-7.016 6.981-12.608 10.148-18.764 3.143-6.108 2.77-12.536 1.217-19.021z" opacity=".3"/><path d="m400.973 513.109c-.575-.15-1.369.185-1.471.835-.25 1.604.815 3.108.062 4.673-.794 1.649-3.325 2.541-4.845 3.326-5.535 2.856-11.912 4.363-17.941 5.746-6.585 1.51-13.263 2.623-19.82 4.247-3.788.938-8.345 1.621-11.644 3.839-1.064.715-.718 2.501.674 2.489 12.932-.107 25.662-1.824 38.158-5.304 5.987-1.666 13.561-3.74 17.569-8.883 2.098-2.691 4.172-9.682-.742-10.968z" opacity=".3"/><path d="m399.931 544.985c-.948-1.033-2.637-.449-3.016.797-1.444 4.742-.034 10.502-.323 15.458-.348 5.969-4.468 10.479-4.91 16.354-.085 1.126 1.105 1.783 2.077 1.582 12.382-2.563 13.45-26.259 6.172-34.191z" opacity=".3"/></g></svg>